<?xml version="1.0" encoding="UTF-8"?>
<svg id="svgRoot" xmlns="http://www.w3.org/2000/svg" xmlns:svg="http://www.w3.org/2000/svg" version="1.1" viewBox="0 0 493 490.1">
  
  <defs>
    <style>
      .st0 {
        fill: #1b1918;
        fill-rule: evenodd;
      }
    </style>
  </defs>
  <g id="rootGroup">
    <path class="st0" d="M246.5,0c68.1,0,129.7,27.4,174.3,71.8,44.6,44.3,72.2,105.6,72.2,173.3s-27.6,128.9-72.2,173.3c-44.6,44.3-106.2,71.8-174.3,71.8s-129.7-27.4-174.3-71.8C27.6,374,0,312.7,0,245.1S27.6,116.1,72.2,71.8C116.8,27.4,178.4,0,246.5,0ZM29,205.5c1.7,0,3,1.3,3,3s-1.3,3-3,3-3-1.3-3-3,1.3-3,3-3ZM458.6,326.8l-2.6-1-1.1,2.8-11.5-4.6-1.3,3.3,14.2,5.6,2.4-6.1ZM439.3,333.5l-1.5,3.2,11.3,5.1-2,4.4,2.6,1.2,5.5-12.1-2.6-1.2-2,4.4-11.3-5.1ZM428.3,354.6l6-.5c-.3,2.1.6,4,2.6,5.1,3,1.7,6.1.6,8.1-3l3.3-5.7-13.2-7.6-1.8,3.1,3.7,2.1-1.5,2.7v.2c0,0-5.2.4-5.2.4l-1.9,3.3ZM438.6,356.1c-1.4-.8-1.8-2.3-.7-4.1l1.4-2.5,4.6,2.7-1.4,2.5c-1.1,1.9-2.5,2.3-3.9,1.5ZM422.8,362.8c-2.6,4-1.7,8.8,2.1,11.3,3.8,2.5,8.5,1.3,11.1-2.7,2.6-4,1.7-8.8-2.1-11.3-3.8-2.5-8.5-1.3-11.1,2.7ZM425.3,364.4c1.5-2.3,4.2-2.9,6.7-1.4,2.4,1.6,3,4.4,1.5,6.6-1.5,2.3-4.2,2.9-6.7,1.4-2.4-1.6-3-4.4-1.5-6.6ZM420.9,391.3l2.1-2.7-2.8-7.4,7.8,1,2.3-2.9-11.3-1.4-4.3-3.4-2.2,2.8,4.2,3.3,4.1,10.7ZM398.7,392.8c-3.3,3.5-3.4,8.3,0,11.5,3.3,3.1,8.1,2.9,11.5-.6,3.3-3.5,3.3-8.3,0-11.5-3.3-3.1-8.1-2.9-11.5.6ZM400.9,394.9c1.9-2,4.7-2.1,6.8,0,2.1,2,2.1,4.8.2,6.8-1.9,2-4.7,2.1-6.8,0-2.1-2-2.1-4.8-.2-6.8ZM390.4,405.3l.3,13.1,1.5,1.7,9.7-8.4-1.9-2.2-6.2,5.4-.3-13.1-1.5-1.7-10.1,8.7,1.9,2.2,6.6-5.7ZM380.8,429.3c2.6-1.9,3.6-4.9,1.8-7.5-1.7-2.3-4.6-2.5-7-.8-1.3.9-2.1,2.1-2.3,3.3-1.6-2.5-1.1-4.6.9-6.1.9-.6,1.8-1,2.8-1l-.4-2.9c-1.3,0-2.7.7-4.1,1.6-3.8,2.7-4.6,6.9-1.6,11.2,2.8,4,6.5,4.7,9.9,2.2ZM376.5,423.6c1.3-.9,2.6-.8,3.4.4.8,1.1.5,2.5-.8,3.3-1.4,1-2.7.8-3.5-.3-.8-1.1-.5-2.5.8-3.4ZM368.8,437.6c2.7-1.7,3.8-4.8,2.1-7.4-1.5-2.4-4.5-2.8-7-1.2-1.3.9-2.2,2-2.5,3.2-1.5-2.5-.9-4.7,1.2-6.1.9-.6,1.8-.9,2.8-.9l-.3-2.9c-1.3,0-2.8.5-4.1,1.4-3.9,2.5-5,6.7-2.1,11.1,2.6,4.1,6.2,5,9.8,2.7ZM364.7,431.7c1.3-.8,2.7-.6,3.4.5.7,1.2.3,2.5-.9,3.3-1.4.9-2.8.6-3.5-.5-.7-1.1-.3-2.5,1-3.3ZM356.2,445.1c2.8-1.6,4-4.6,2.5-7.3-1.4-2.5-4.4-3-6.9-1.5-1.4.8-2.3,1.9-2.6,3.1-1.4-2.6-.7-4.7,1.5-6,.9-.5,1.9-.8,2.9-.8l-.2-2.9c-1.3,0-2.8.4-4.2,1.2-4,2.3-5.3,6.4-2.7,11,2.4,4.3,6,5.3,9.7,3.2ZM352.4,439c1.4-.8,2.7-.5,3.4.7.7,1.2.2,2.5-1.1,3.2-1.5.8-2.8.5-3.4-.6-.7-1.2-.2-2.5,1.1-3.3ZM329.2,454.7l1.2,2.6,10.5-4.7-6.3-13.9-3.2,1.4,2.3,5.1-6.4,2.9,1.2,2.6,6.4-2.9,1.7,3.7-7.3,3.3ZM321.7,444l-3.3,1.3,5.6,14.2,3.3-1.3-5.6-14.2ZM309.2,464.3l-2.5-8.9,9.8,6.8,2.8-.8-4.1-14.7-3.4.9,2.5,8.9-9.8-6.8-2.8.8,4.1,14.7,3.4-.9ZM295.4,455.1l.8,3.4-6.9,1.6.6,2.7,6.9-1.6.7,3.2-7.8,1.8.6,2.8,11.2-2.6-3.4-14.9-11.5,2.6.6,2.8,8.1-1.9ZM270.6,456.3c-2.6.3-4.7,1.6-5.9,3.5l2.5,1.8c.9-1.3,2.1-2.1,3.6-2.3,2.8-.4,5.1,1.4,5.4,4.2.4,2.9-1.4,5.1-4.2,5.4-1.5.2-2.9-.3-4-1.3l-2,2.4c1.6,1.5,3.9,2.2,6.6,1.9,4.7-.6,7.8-4.3,7.2-8.9-.6-4.6-4.5-7.4-9.2-6.8ZM254.9,457.6c-4.8.1-8.2,3.5-8.1,8.1.1,4.5,3.7,7.8,8.5,7.7,4.8-.1,8.2-3.6,8.1-8.1-.1-4.5-3.7-7.8-8.5-7.7ZM255,460.6c2.7,0,4.8,1.9,4.9,4.8,0,2.9-1.9,4.9-4.6,5-2.7,0-4.8-1.9-4.9-4.8,0-2.9,1.9-4.9,4.6-5ZM237,473.1l6.6.2.4-15.2h-3.5c0,0-.1,4.1-.1,4.1h-3.1c-4.1-.2-6.7,1.9-6.8,5.3,0,3.4,2.4,5.6,6.5,5.7ZM237.4,465h2.9c0,0-.1,5.4-.1,5.4h-2.9c-2.2-.1-3.2-1.1-3.2-2.8,0-1.7,1.2-2.6,3.3-2.5ZM219.8,471.8l6.5.8,1.9-15.1-3.5-.4-.5,4.2-3-.4c-4-.5-6.8,1.3-7.3,4.6-.4,3.4,1.8,5.8,5.9,6.3ZM221,463.8l2.9.4-.7,5.2-2.9-.4c-2.1-.3-3.1-1.4-2.9-3,.2-1.6,1.4-2.5,3.5-2.2ZM208.7,457.7l-.6,3.5-7-1.2-.5,2.7,7,1.2-.6,3.3-7.9-1.4-.5,2.8,11.3,2,2.7-15-11.6-2.1-.5,2.8,8.2,1.5ZM185.3,449.4l2,5.6c-2.1.3-3.7,1.6-4.3,3.8-.9,3.3.9,6,4.9,7.1l6.3,1.8,4.1-14.7-3.4-1-1.2,4.1-3-.8h-.2s-1.7-4.9-1.7-4.9l-3.6-1ZM186.3,459.8c.4-1.6,1.8-2.3,3.8-1.7l2.8.8-1.4,5.1-2.8-.8c-2.1-.6-2.9-1.8-2.4-3.4ZM160.9,440.7l-5.5,14.2,2.7,1.1,8.7-6.8,1.8,10.9,2.7,1.1,5.6-14.2-3.1-1.2-3.3,8.3-1.5-8.5-1.5-.6-6.9,5.4,3.3-8.5-3.1-1.2ZM155.2,437.7c-3.3-1.5-5.8-.6-7.3,2.9l-4.1,9,8.1,3.6,1.2-2.6-4.9-2.2,3-6.6c.7-1.5,1.7-2,3-1.4,1,.4,1.6,1.3,1.9,2.7l2.8-1.3c-.4-1.8-1.7-3.2-3.6-4.1ZM133.4,435.4c-1.4,0-2.7.6-3.4,1.9-1.2,2.1-.3,4.4,3,6.3l6.5,3.7,7.6-13.2-6.8-3.9c-3.5-2-6-1.7-7.4.6-1,1.7-.7,3.3.5,4.7ZM134.7,441.6c-1.5-.9-2-1.8-1.4-2.9.6-1,1.7-1.1,3.2-.2l3,1.7-1.8,3.1-3-1.7ZM139.1,432.6l3.6,2-1.9,3.3-3.6-2c-1.6-.9-2.1-1.9-1.5-3,.6-1.1,1.8-1.1,3.4-.2ZM113.4,412.5l-8.8,12.5,2.4,1.7,10.1-4.5-.8,11,2.4,1.7,8.8-12.4-2.7-1.9-5.2,7.3.6-8.6-1.3-.9-8,3.6,5.3-7.5-2.7-1.9ZM105.3,405c-3.6-3.1-8.5-2.9-11.5.5-3,3.4-2.5,8.3,1.2,11.4,3.6,3.1,8.5,2.9,11.5-.5,3-3.4,2.5-8.3-1.2-11.4ZM103.3,407.3c2.1,1.8,2.3,4.6.4,6.8-1.9,2.2-4.7,2.4-6.8.6-2.1-1.8-2.3-4.6-.4-6.8,1.9-2.2,4.7-2.4,6.8-.6ZM78.7,400.8l6.7-6.4-1.4,11.9,2,2.1,11-10.5-2.4-2.5-6.7,6.4,1.4-11.9-2-2.1-11,10.5,2.4,2.5ZM80.4,384.2l-2.8,2.2-4.4-5.6-2.2,1.7,4.4,5.6-2.6,2-5-6.3-2.2,1.8,7.1,9,12-9.4-7.3-9.3-2.2,1.8,5.1,6.5ZM73.9,371.2l-2.1-2.9-10.1,7.2-2.8-4-2.3,1.7,7.7,10.8,2.3-1.7-2.8-4,10.1-7.2ZM62.2,353.8l-2-3.1-9.1,14,1.9,2.9,16.5-2.5-2-3-3.5.6-3.8-5.9,2-2.9ZM61.2,363.1l-6.2,1.1,3.6-5.2,2.6,4.1ZM53.4,337.2l-2.8,5.3c-1.7-1.4-3.7-1.6-5.7-.6-3,1.6-3.8,4.8-1.9,8.4l3,5.9,13.6-7-1.6-3.1-3.8,1.9-1.4-2.7v-.2c0,0,2.4-4.6,2.4-4.6l-1.7-3.4ZM46.6,345c1.5-.8,2.9-.2,3.8,1.7l1.3,2.6-4.7,2.4-1.3-2.6c-1-1.9-.6-3.3.9-4.1ZM33.2,329.3l1.4,3.2,7.8.9-4.5,6.5,1.5,3.4,6.5-9.4,5-2.2-1.5-3.2-4.9,2.2-11.4-1.3ZM39.7,299.3l-14.6,4.2.8,2.8,10.6,2.8-7.5,8.1.8,2.8,14.7-4.2-.9-3.2-8.6,2.5,5.8-6.3-.4-1.5-8.5-2.2,8.8-2.5-.9-3.2ZM35.3,293l-3.4.8-1.6-6.9-2.7.6,1.6,6.9-3.2.7-1.8-7.8-2.8.6,2.6,11.2,14.8-3.4-2.7-11.5-2.8.6,1.9,8.1ZM35.4,278.4l-.4-3.5-12.3,1.6-.6-4.8-2.9.4,1.7,13.2,2.9-.4-.6-4.8,12.3-1.6ZM33.3,257.6l-.3-3.7-14.7,8,.3,3.5,15.7,5.6-.3-3.6-3.4-1.1-.5-7.1,3.2-1.6ZM27.9,265.3l-6-2,5.6-2.9.4,4.8ZM33.1,252.3l-.3-11.2h-2.9c0,0,.2,7.7.2,7.7l-12.4.3v3.5c0,0,15.3-.4,15.3-.4ZM33.6,234.2c.3-4.3-1.7-6.6-4.2-6.8-5.6-.4-4.3,8.6-7.1,8.3-1,0-1.7-.9-1.5-3,.1-1.3.6-2.8,1.5-4.1l-2.6-1.3c-1,1.3-1.6,3.3-1.7,5.2-.3,4.3,1.7,6.6,4.2,6.8,5.6.4,4.4-8.6,7.2-8.3.9,0,1.6,1,1.4,3.1-.1,1.8-.9,3.7-2,4.9l2.6,1.4c1.1-1.3,2-3.6,2.2-6.1ZM36.2,178.6c-.3-1.4-1.2-2.4-2.7-2.9-2.3-.7-4.3.8-5.4,4.5l-2,7.2,14.7,4.2,2.2-7.6c1.1-3.9.2-6.3-2.3-7-1.8-.5-3.4.2-4.4,1.6ZM30.6,181.3c.5-1.7,1.3-2.4,2.4-2.1,1.2.3,1.5,1.4,1,3l-1,3.4-3.5-1,1-3.4ZM40.3,183.5l-1.1,4-3.6-1,1.1-4c.5-1.8,1.4-2.5,2.6-2.2,1.3.4,1.5,1.5,1,3.2ZM45.7,175.6l1.1-3.3-14.4-4.9-1.1,3.3,14.4,4.9ZM49.4,166l1.3-3.3-11.5-4.6,1.8-4.5-2.7-1.1-4.9,12.3,2.7,1.1,1.8-4.5,11.5,4.6ZM57,150.4c1.2-2.4,1.4-4.8.5-6.8l-2.9,1.1c.6,1.5.6,2.9-.1,4.2-1.3,2.5-4,3.4-6.6,2.1-2.6-1.3-3.4-4-2.1-6.6.7-1.4,1.8-2.2,3.3-2.6l-.8-3c-2.2.5-4.1,2-5.3,4.3-2.2,4.2-.9,8.9,3.2,11,4.1,2.1,8.6.5,10.8-3.7ZM64.6,136.7c2.6-4,1.7-8.8-2.1-11.3-3.8-2.5-8.5-1.3-11.1,2.7-2.6,4-1.7,8.8,2.1,11.3,3.8,2.5,8.5,1.3,11.1-2.7ZM62.1,135.1c-1.5,2.3-4.2,2.9-6.7,1.4-2.4-1.6-3-4.4-1.5-6.6,1.5-2.3,4.2-2.9,6.7-1.4,2.4,1.6,3,4.4,1.5,6.6ZM70.4,127.3l2-2.9-12.4-8.9-2,2.9,12.4,8.9ZM69,103.8l7.3,5.7-12,.2-1.8,2.3,12,9.4,2.2-2.7-7.3-5.7,12-.2,1.8-2.3-12-9.4-2.2,2.7ZM89.6,103.2l4.8-5c3.4-3.6,3.6-8.1.3-11.3-3.3-3.2-7.9-2.8-11.3.8l-4.8,5,11,10.5ZM90,98.7l-6.8-6.5,2.2-2.3c2.1-2.2,4.8-2.4,6.9-.3,2.1,2,2,4.7,0,6.9l-2.2,2.3ZM102.4,90.5l2.7-2.3-10-11.5-2.7,2.3,10,11.5ZM113.7,76.7c-.4.9-1,1.6-1.8,2.2-2.3,1.8-5.1,1.5-6.9-.8-1.8-2.3-1.4-5.1.9-6.9,1.2-1,2.6-1.3,4.2-1.1l.5-3c-2.2-.4-4.5.2-6.6,1.9-3.8,3-4.6,7.8-1.7,11.4,2.8,3.6,7.6,4,11.4,1.1,1.7-1.3,3.1-3.3,3.7-5.3l-3.8-4.9-2.5,2,2.8,3.5ZM121,75.5l2.9-2-8.8-12.4-2.9,2,8.8,12.4ZM129.4,69.6l3-1.9-6.6-10.4,4.1-2.6-1.5-2.4-11.2,7.1,1.5,2.4,4.1-2.6,6.6,10.4ZM147.4,58.9l3.2-1.8-13.5-9.8-3,1.7,1.7,16.6,3.1-1.8-.5-3.5,6.1-3.5,2.8,2.2ZM138.1,57.4l-.8-6.3,5,3.9-4.2,2.4ZM152.2,56.6l10.2-4.6-1.2-2.6-7,3.1-5.1-11.3-3.2,1.4,6.3,13.9ZM169.9,48.9l6.6-2.2c4.7-1.6,7-5.5,5.5-9.9-1.5-4.4-5.7-6.1-10.4-4.5l-6.6,2.2,4.9,14.4ZM172.3,45l-3-9,3.1-1c2.9-1,5.3.1,6.3,2.9.9,2.8-.4,5.1-3.2,6.1l-3.1,1ZM189.6,39.7l-1-3.4,6.8-1.9-.7-2.6-6.8,1.9-.9-3.2,7.7-2.2-.8-2.7-11.1,3.1,4.1,14.7,11.4-3.2-.8-2.7-8,2.3ZM208.3,38.7c2.6-.5,4.6-1.8,5.7-3.8l-2.6-1.7c-.8,1.4-2,2.2-3.5,2.5-2.8.5-5.2-1.1-5.7-3.9-.5-2.8,1.1-5.2,3.9-5.7,1.5-.3,2.9.1,4.1,1.1l1.9-2.5c-1.7-1.5-4.1-2-6.6-1.6-4.7.8-7.6,4.7-6.8,9.2.8,4.5,4.9,7.1,9.5,6.3ZM219.9,33.9l-.4-3.5,7-.9-.3-2.7-7,.9-.4-3.3,7.9-1-.4-2.8-11.4,1.4,1.9,15.1,11.7-1.5-.4-2.8-8.2,1ZM241.4,20l.2,9.2-7.8-9.1h-2.9c0,0,.4,15.3.4,15.3h3.5c0,0-.2-9.3-.2-9.3l7.8,9.1h2.9c0,0-.4-15.3-.4-15.3h-3.5ZM252.1,35.3h3.5c0,0,.3-12.3.3-12.3h4.9c0,.1,0-2.7,0-2.7l-13.3-.3v2.9c0,0,4.8.1,4.8.1l-.3,12.4ZM275.8,37.3l-2.8-5.3c2.1-.6,3.4-2.1,3.7-4.4.4-3.4-1.8-5.8-5.9-6.3l-6.5-.8-1.9,15.1,3.5.4.5-4.2,3,.4h.2s2.4,4.6,2.4,4.6l3.8.5ZM273.2,27.2c-.2,1.6-1.4,2.5-3.6,2.2l-2.9-.4.7-5.3,2.9.4c2.1.3,3.1,1.4,2.9,3ZM289.5,39.6l3.6.6-4-16.2-3.4-.6-9.4,13.8,3.6.6,1.9-3,7,1.2.8,3.5ZM283.3,32.5l3.4-5.3,1.4,6.2-4.8-.8ZM294.6,40.7l10.7,3,.8-2.8-7.4-2.1,3.4-11.9-3.4-1-4.1,14.7ZM307.3,44.2l3.3,1.1,4.9-14.4-3.3-1.1-4.9,14.4ZM318.6,44.9l11.4-6.3.8-2.1-11.9-4.7-1.1,2.7,7.6,3-11.5,6.3-.8,2.1,12.4,4.9,1.1-2.7-8.1-3.2ZM332.1,50.4l1.4-3.2,6.5,2.9,1.1-2.5-6.5-2.9,1.4-3,7.3,3.3,1.2-2.6-10.5-4.7-6.3,13.9,10.8,4.8,1.2-2.6-7.6-3.4ZM341.2,57.5l6,3.4c4.3,2.5,8.8,1.6,11.1-2.4,2.3-4,.8-8.3-3.5-10.8l-6-3.4-7.6,13.2ZM345.7,56.7l4.7-8.2,2.8,1.6c2.6,1.5,3.4,4.1,2,6.6-1.4,2.5-4.1,3.1-6.7,1.6l-2.8-1.6ZM376.2,61l-5.4-3.8-8.8,12.4,2.9,2,2.4-3.4,2.5,1.8c3.3,2.4,6.6,2.1,8.6-.7,2-2.8,1.1-6-2.2-8.3ZM371.3,67.6l-2.3-1.7,3.1-4.3,2.3,1.7c1.8,1.2,2.1,2.7,1.1,4-1,1.4-2.4,1.5-4.2.3ZM379.2,78.8l2.2-2.8,5.6,4.4,1.7-2.2-5.6-4.4,2-2.6,6.3,4.9,1.7-2.2-9.1-7.1-9.4,12,9.3,7.3,1.7-2.2-6.5-5.1ZM390.6,88.4l2.4-2.6,5.1,4.9,1.9-2-5.1-4.9,2.3-2.4,5.8,5.5,1.9-2.1-8.3-7.9-10.5,11,8.6,8.1,1.9-2.1-6-5.7ZM406,107.9l1.2-5.9c2,.8,4,.5,5.6-1.1,2.5-2.4,2.2-5.7-.6-8.6l-4.6-4.8-11,10.5,2.4,2.5,3.1-2.9,2.1,2.2h.1c0,.1-1,5.2-1,5.2l2.6,2.7ZM410.3,98.4c-1.2,1.1-2.7,1-4.2-.5l-2-2.1,3.8-3.7,2,2.1c1.5,1.6,1.5,3,.3,4.2ZM413.3,117.2l2.2,2.8,9.7-7.7,3,3.8,2.3-1.8-8.2-10.4-2.3,1.8,3,3.8-9.7,7.7ZM423.2,131.5c2.6,4,7.3,5.2,11.1,2.7,3.8-2.5,4.7-7.2,2.1-11.3-2.6-4-7.3-5.2-11.1-2.7-3.8,2.5-4.7,7.2-2.1,11.3ZM425.7,129.9c-1.5-2.3-.9-5.1,1.5-6.6,2.4-1.6,5.2-.9,6.7,1.4,1.5,2.3.9,5.1-1.5,6.6-2.4,1.6-5.2.9-6.7-1.4ZM448.8,145l-3-5.9-13.6,7,1.6,3.1,3.7-1.9,1.4,2.7c1.9,3.6,4.9,4.9,7.9,3.4,3-1.6,3.8-4.8,1.9-8.4ZM441.5,148.6l-1.3-2.6,4.7-2.4,1.3,2.6c1,1.9.6,3.3-.9,4.1-1.5.8-2.8.2-3.8-1.7ZM443.3,162.3l3.3-1.3,2.6,6.6,2.6-1-2.6-6.6,3.1-1.2,2.9,7.5,2.6-1-4.2-10.7-14.2,5.6,4.3,11,2.6-1-3.1-7.7ZM448.6,176.1l3.3-1.1,2.3,6.7,2.6-.9-2.3-6.7,3.1-1.1,2.6,7.6,2.7-.9-3.7-10.9-14.4,4.9,3.8,11.2,2.7-.9-2.7-7.9ZM452.6,200.7l4-4.4c1.3,1.7,3.2,2.5,5.4,2,3.3-.8,4.8-3.7,3.9-7.7l-1.5-6.4-14.8,3.4.8,3.4,4.1-1,.7,3v.2s-3.4,3.8-3.4,3.8l.9,3.7ZM461.2,194.7c-1.6.4-2.8-.5-3.3-2.6l-.6-2.8,5.2-1.2.6,2.8c.5,2.1-.2,3.4-1.9,3.8ZM199.3,148.9h-55.7v25.9h36.6v143h-27l-5.9,26.9,53,4.2v44.2h23.3v-45.3h24.1v45.1h23v-45.7h7.7s1.9,0,1.9,0c10.3,0,18.1,0,28.9-3,2.7-.8,5.5-1.7,8.3-2.9,2.8-1.2,5.8-2.6,8.6-4.3,4.6-2.7,8.8-6,12.4-9.7,3.7-3.7,6.9-7.9,9.8-12.4,3.1-4.9,5.1-10.6,6.3-16.6,1.4-6.7,1.6-13.6,1.1-20.1-.5-6.3-2.1-12-4.8-17-2.7-5.1-6.5-9.5-11.4-13.5-2.7-2.2-6-4.3-9.8-6.2-3.4-1.7-7.3-3.3-11.7-4.5l-1.9-.6,1.8-.8s8.6-4,15-11.6c2.1-2.5,3.6-5.2,4.8-8,1.1-2.8,1.9-5.7,2.3-8.8,1-6.8,1.2-13.6,0-20-1.2-6.4-3.7-12.6-8-18.1-3.9-5-8.8-9.1-14.3-12.3-5.7-3.2-11.9-5.4-18.4-6.3-3-.4-6.7-.8-11.2-1.1-4.6-.3-10-.4-16.4-.3h-.8s0-46.1,0-46.1h-23.4v45.9h-24v-45.7h-23v45.7h-1.2s0,0,0,0ZM225.1,140.2h21v-4.7h-21v4.7ZM246.1,141.7h-21v5.8h21v-5.8ZM383.8,349l-9.1,11.8-1-.7c-.5.6-1.1,1.2-1.8,1.9-.6.6-1.2,1.2-1.7,1.8l2.7,2.7-.5.5-11.6,11.7-2.9-2.9c-1.3,1.2-2.6,2.3-3.9,3.4-1.5,1.2-3.1,2.5-4.7,3.6-8.5,6.3-17.8,12-27.4,17-9.3,4.7-18.9,8.7-28.6,11.7-26,7.9-43.9,6.9-44,6.9-17,.1-34.1-2.6-34.2-2.6h0c-3.7-.4-8-1.3-12.6-2.5-6.2-1.6-12.9-3.8-19-6.1-3.8-1.4-7.7-3-11.5-4.7-3.5-1.6-7-3.3-10.5-5.2-4.9-2.7-9.8-5.8-14.5-9.1-4.9-3.5-9.6-7.3-14-11.1-1.1-1-2.2-2-3.4-3.1-1-.9-1.9-1.8-2.9-2.7l-.7.7-12-12.4,1-1c-.7-.8-1.3-1.6-2-2.4-.8-1-1.6-2-2.3-3-5.4-7.1-10.4-14.7-14.7-22.6-4.3-7.8-8-16-11-24.4-.8-2.2-1.5-4.3-2.1-6.3-.7-2.2-1.3-4.3-1.9-6.4-1.3-4.7-2.3-9.5-3.2-14.3-.8-4.8-1.4-9.6-1.8-14.4-.6-7.6-.9-14.6-.7-21.6.2-6.9.8-13.7,1.9-20.6,1.8-10.8,4.2-20.7,7.6-30.3,3.4-9.6,7.7-18.8,13.1-28.3,2.5-4.3,4.7-8.1,7-11.6,2.3-3.5,4.6-6.8,7.2-10.2,1.3-1.6,2.6-3.2,4-4.9,1.3-1.5,2.6-3,4-4.5l-2.7-2.7.5-.5,11.8-11.5,2.5,2.6c2.3-2.1,4.5-4,6.8-5.9,2.4-2,4.9-3.9,7.3-5.6,5.4-3.9,10.7-7.3,16.1-10.3,5.4-3,11-5.7,17.2-8.2,21.7-9,35.8-9.9,35.9-9.9h.8c0,0,0,21.1,0,21.1h4.7v-22.4h8.4v-1.2h14.3v10.3h-3.9v.9h3.9v10.3h-3.9v2.1h-1.5v-2.1h-4.8v2.1h-1.5v-2.1h-2.7v-1.4h-6.9v3.5h2.3v5.1h21v-5.2h3.3v-23.5h.8c3.1.2,6.2.4,9.2.7,3,.3,6,.6,8.8,1,11,1.5,20.3,3.5,29.4,6.5,9,2.9,17.8,6.7,27.7,11.9,6.7,3.5,12.8,7.1,18.5,11,5.5,3.8,10.7,7.9,15.6,12.4l1.6-1.4.5.6,11.2,12.1-1.2,1.1c.7.8,1.5,1.7,2.2,2.6.8,1,1.7,2.1,2.6,3.2,5.2,6.5,10,13.2,14.2,20.1,4.2,7,7.9,14.2,11.1,22,4.6,11.2,6.9,20.1,7.2,21.5l15.4,15.1h41.4l15.9,8.1c-4.5-57.3-29.8-108.8-68.3-147.1C370.5,37,311.6,10.8,246.5,10.8s-124,26.2-166.6,68.6C37.2,121.8,10.8,180.4,10.8,245.1s26.4,123.3,69,165.7c42.6,42.4,101.6,68.6,166.6,68.6s124-26.2,166.6-68.6c25.9-25.8,45.8-57.5,57.4-92.9l-15.2-7.2h-57.6l-18.9,18.2c-.7,1.2-9.3,15.5-20.4,27.4-1.3,1.4-2.7,2.8-4,4.2-1.2,1.2-2.4,2.4-3.7,3.5l2.2,2.8-.6.5-13,10.2-2.1-2.6c-1.4,1-2.9,2-4.4,2.9-1.6,1-3.3,2.1-5,3.1-5.8,3.4-11.7,6.4-17.7,9-6.1,2.6-12.3,4.9-18.9,6.9-3.3,1-6.7,1.9-10,2.8-3.2.8-6.4,1.5-9.4,2.1-1.1.2-2.3.4-3.6.6-1.3.2-2.6.4-4,.5h-.8c0,0,0-8.2,0-8.2h-5.9v13.6c3.1,0,15.7-.2,33.2-5.5,6.5-2,13.7-4.7,20.7-7.8,6.6-2.9,12.9-6.1,18.3-9.4,5.1-3.2,10.2-6.7,14.9-10.5,5.3-4.2,10.4-8.7,15-13.1,1.5-1.5,3-2.9,4.2-4.3,1-1.1,1.9-2.1,2.5-3l-1-.8,9.5-12.4,7.5,5.8c0-.1.2-.3.3-.4.2-.3.4-.6.6-.9l1.3.8c-.2.3-.4.6-.6.9-.1.2-.2.3-.3.5l.6.4-.5.6ZM481.5,228.2l-16.4-8.3h-41.7c-5.4-5.3-10.8-10.5-16.1-15.8v-.2c0,0-2.3-9.4-7.3-21.5-3.1-7.7-6.8-14.9-11-21.8-4.2-6.9-8.9-13.5-14.1-20-.8-1-1.7-2.1-2.6-3.2-.7-.9-1.4-1.7-2.2-2.6l-3.7,3.5-11.7-12.7,3.4-3.1c-4.8-4.4-9.9-8.4-15.4-12.2-5.7-3.9-11.8-7.5-18.4-11-9.8-5.1-18.5-8.9-27.5-11.8-8.9-2.9-18.2-4.9-29.1-6.4-2.8-.4-5.7-.7-8.7-1-2.7-.3-5.5-.5-8.3-.6v21.9h4.2v-16.8h.8c3.1,0,6.7.5,10.4,1.1,4.3.7,8.9,1.7,13.3,2.8,10.5,2.6,19.4,5.2,27.9,8.7,8.5,3.5,16.7,7.8,25.9,13.7,6.5,4.2,12.4,8.6,17.9,13.4,5.5,4.8,10.7,10,15.9,15.8,6.6,7.5,12.8,15.8,18.1,24.6,4.9,8.1,9,16.7,12.1,25.4,3.1,9.1,5,17,5.3,18.3l14.2,17.4h48.3l16.9,8.8c0-2.2-.2-4.4-.4-6.5ZM482,236.5l-17.4-9h-48.6c-5-6.1-9.9-12.1-14.9-18.2v-.2s-2-8.4-5.4-18.3c-3-8.7-7.1-17.1-11.9-25.2-5.3-8.7-11.4-16.9-18-24.4-5.1-5.8-10.3-11-15.7-15.7-5.5-4.7-11.3-9.1-17.7-13.3-9.1-5.9-17.2-10.2-25.6-13.6-8.4-3.4-17.2-6-27.7-8.6-4.4-1.1-8.9-2.1-13.2-2.8-3.3-.5-6.5-.9-9.4-1v15.3h4v-11.3h.9c6.8,1.1,13.2,2.5,19.2,4.2,7,1.9,13.3,4.1,19,6.4,7.9,3.2,14.9,6.6,21.5,10.4,6.5,3.8,12.5,8.1,18.4,12.9,3.2,2.6,6.4,5.5,9.5,8.5,2.9,2.8,5.8,5.7,8.6,8.8l3.2-2.7.5.6,10.6,12.6-3.2,2.7c2.8,3.7,5.5,7.5,8,11.4,2.5,3.9,4.8,7.9,6.8,11.8,10.1,19.9,13.7,38,14.1,40.3l15.3,15.1h52l17.1,9.3c0-2,0-4-.1-6ZM482.1,244.3l-17.5-9.5h-52.2c-5.3-5.3-10.7-10.6-16.1-15.8v-.2c0,0-3.4-19.1-14.1-40.1-2-3.9-4.3-7.8-6.7-11.7-2.4-3.8-5.1-7.6-7.9-11.2l-2,1.7c-3.7-4.4-7.4-8.8-11.1-13.2l2-1.7c-2.8-3-5.6-5.9-8.5-8.7-3.1-3-6.3-5.8-9.4-8.4-5.8-4.8-11.8-9-18.2-12.8-6.5-3.8-13.4-7.1-21.3-10.3-5.7-2.3-12-4.5-18.9-6.4-5.7-1.6-11.8-2.9-18.2-3.9v9.5h10.5c1.9.3,3.7.6,5.5.9,2,.3,3.8.7,5.5,1.1,7.4,1.6,13.9,3.8,20.1,6.6,6.3,2.8,12.3,6.1,18.7,10.1,4.7,2.9,9.1,5.8,13.4,9,4.3,3.2,8.3,6.5,12.2,10.1,7.5,7,14.4,15.1,20.3,23.8,6.1,8.9,11.2,18.5,15.2,28.2,7.4,18.3,9,32.4,9.2,34.5l13,13.5h33.6v-3.8h20.4v3.8h5.6l16.8,9.4c0-1.2,0-2.4,0-3.6s0-.5,0-.8ZM482.1,250.3l-17.1-9.6h-5.3v3.7h-20.4v-3.7h-34.2c-4.6-4.8-9.2-9.5-13.9-14.3v-.3s-1.1-14.7-9.1-34.3c-3.9-9.6-9-19.1-15-27.9-5.9-8.6-12.7-16.6-20.1-23.6-3.8-3.6-7.9-6.9-12.1-10-4.2-3.1-8.6-6.1-13.3-8.9-6.4-3.9-12.3-7.2-18.5-10-6.2-2.7-12.6-4.9-19.8-6.5-1.7-.4-3.5-.7-5.5-1.1-1.7-.3-3.4-.6-5.2-.8v2c2,.5,4,1.1,6,1.8,2.2.7,4.4,1.4,6.4,2.1,5.2,1.8,10.3,3.7,15.4,5.9,5.1,2.2,10,4.6,14.9,7.3,7.9,4.4,15.4,9.7,22.3,15.5,7.1,6.1,13.6,12.9,19.5,20.2l1.2,1.5c.2.3.4.5.7.9l3.4-2.3.4.6,9.2,13.7-3.1,2.1c2.3,3.7,4.4,7.4,6.4,11.3,2,4.1,3.9,8.5,5.5,13.1,5.5,15.7,7.8,30.3,8.1,32.2l12.1,14.8h63.9l17.1,8.8c0-1.4,0-2.8.1-4.2ZM481.9,256.2l-17.3-8.9h-64.3c-4.3-5.2-8.5-10.4-12.8-15.7v-.2s-2.2-15.5-8.1-32.2c-1.6-4.6-3.4-8.8-5.4-12.9-1.9-3.9-4-7.6-6.3-11.2l-2.5,1.7-9.6-14.3,2.2-1.5-.6-.8-1.2-1.5c-5.8-7.2-12.2-14-19.3-20-6.8-5.8-14.2-11-22-15.4-4.8-2.6-9.7-5-14.7-7.2-5-2.2-10.2-4.1-15.3-5.9-2.1-.7-4.2-1.4-6.4-2.1-1.8-.6-3.7-1.1-5.6-1.6v5.3c2.1.5,4.2,1.1,6.1,1.7,2.1.6,4,1.2,5.7,1.7,4.1,1.3,8.2,2.8,12.2,4.5,3.9,1.6,7.8,3.4,11.5,5.4,7.5,3.9,14.6,8.6,21.3,13.9,6.6,5.3,12.8,11.2,18.2,17.7,6,7.1,11.5,14.4,16.1,22.2,4.6,7.8,8.5,16,11.2,25,4.8,15.7,7.2,31.8,7.5,33.9l13.4,15h43.5v-3.8h20.4v3.8h6.5l15.4,8.4c.1-1.7.2-3.4.3-5.2ZM481.4,263.1l-15.7-8.6h-6.1v3.8h-20.4v-3.8h-44.1c-4.7-5.3-9.4-10.5-14.2-15.8v-.2s-2.4-17.2-7.5-33.9c-2.7-8.8-6.5-16.9-11-24.6-4.6-7.7-10-15-16-22-5.4-6.4-11.5-12.2-18-17.5-6.6-5.2-13.6-9.9-21.1-13.8-3.7-2-7.5-3.7-11.4-5.4-4-1.7-8.1-3.2-12.1-4.5-1.7-.6-3.6-1.1-5.7-1.7-1.7-.5-3.6-1-5.7-1.6v5.3c4.5,1,8.7,2.2,12.7,3.6,4.1,1.4,8,2.9,11.4,4.4,8.2,3.5,15.5,7.5,22.3,12.2,6.8,4.7,13.2,10.1,19.4,16.5,2.9,3,5.6,5.9,8.1,8.9,2.5,3,4.8,6,7,9.3.6.9,1.2,1.8,1.8,2.7.4.7.9,1.4,1.3,2.1l2.7-1.4.3.7,7.6,14.6-2.4,1.3c1.4,3,2.6,6.1,3.7,9.2,1.1,3.2,2.1,6.4,2.9,9.7,3.6,15.2,4.8,31.1,4.9,33.4l13.2,13.3h75.5l15.9,8.4c.1-1.5.3-3.1.4-4.7ZM480.9,269.3l-16.1-8.5h-75.8c-4.7-4.7-9.4-9.5-14.1-14.2v-.3s-1-17.2-4.9-33.5c-.8-3.2-1.7-6.4-2.8-9.6-1.1-3-2.3-6-3.6-9l-3.6,1.9-8-15.3,3.3-1.7c-.4-.6-.8-1.3-1.3-2-.6-.9-1.2-1.8-1.8-2.6-2.2-3.2-4.5-6.2-7-9.2-2.5-3-5.1-5.9-8-8.8-6.2-6.3-12.4-11.7-19.2-16.3-6.8-4.6-14-8.6-22.1-12.1-3.4-1.5-7.2-3-11.3-4.3-3.8-1.3-7.9-2.5-12.2-3.5v4.4c1.4.3,2.8.7,4.2,1.1,1.8.5,3.6,1.1,5.3,1.7,6.4,2.1,12.1,4.3,17.5,6.8,5.4,2.5,10.5,5.3,15.5,8.7,5.4,3.6,10.6,7.8,15.4,12.3,4.8,4.4,9.2,9.2,13.2,14.2,3.1,4,5.9,8,8.4,12.3,2.5,4.2,4.8,8.6,6.8,13.2,2.2,4.8,4,9.3,5.5,14,1.5,4.7,2.7,9.5,3.6,14.7,2.2,13.5,2.4,27.3,2.4,29.4l11.6,13.4h11.3v-3.8h31.4v3.8h14.5v-3.7h20.4v3.7h6.6l14,7.6c.2-1.6.4-3.2.6-4.9ZM480.1,275.8l-14.2-7.7h-6.2v3.9h-20.4v-3.9h-14.5v4.5h39.6l15.1,7.8c.2-1.5.5-3.1.7-4.6ZM479.2,282l-15.2-7.9h-39.3v6h38l15.7,6.7c.3-1.6.6-3.2.8-4.8ZM478.1,288.4l-15.7-6.7h-37.7v4.6h36.5l16,6.6c.3-1.5.6-3,.9-4.5ZM476.9,294.4l-15.9-6.6h-36.2v3.7h34.1l17,7.3c.3-1.4.7-2.9,1-4.3ZM475.6,300.2l-17-7.2h-33.8v5h-31.4v-5h-8l-17.9,18.3c-.8,1.6-10.1,19.7-23.9,33.9-3.7,3.8-9.5,8.5-15.5,13-6.2,4.6-12.7,8.8-17.5,11.3-4,2-7.9,3.7-12,5.3-4.1,1.6-8.4,3-13,4.5-2.5.8-5.2,1.7-7.8,2.5-2.2.7-4.1,1.3-5.4,1.7v5.1c4.3-.8,8.4-1.9,12.3-3,4.2-1.2,8.1-2.5,11.5-3.8,3.8-1.4,7.4-2.8,10.9-4.3,3.3-1.4,6.5-2.9,9.5-4.5l-2.7-4.6,14.8-8.8,2.5,4.3c.3-.2.6-.5.9-.7.5-.4,1-.8,1.5-1.1h0c4.4-3.5,9.8-8.4,14.8-13.6,4.8-5,9.2-10.1,12.3-14.5,6.1-8.7,9.9-16.7,9.9-16.7h0c6.1-6.2,12.2-12.3,18.2-18.4h70.2l15.3,6.3c.4-1.7.9-3.3,1.3-5ZM473.9,306.7l-15.1-6.2h-69.2l-17.6,17.6c-.5,1.1-4.2,8.7-9.9,16.8-3.1,4.4-7.6,9.6-12.4,14.7-5.1,5.2-10.5,10.3-14.9,13.8-.5.4-1,.8-1.5,1.2-.4.3-.7.5-1.1.8l.9,1.5-.6.4-14.2,8.4-.7-1.2c-3.2,1.6-6.4,3.1-9.7,4.6-3.5,1.5-7.2,2.9-11,4.3-3.5,1.3-7.4,2.6-11.6,3.8-4,1.2-8.3,2.2-12.7,3.1v2.7c6.5-.7,13.2-2.4,19.3-4.3,6.4-2,12.3-4.5,17.1-6.6,4.8-2.2,9.2-4.4,13.4-6.9,4.2-2.5,8.2-5.1,12.2-8.2,5-3.8,9.8-7.9,14.4-12.4,4.4-4.3,8.4-8.9,12.1-13.6,6.8-8.9,13-18.7,13-18.7h0c6.3-6,12.6-12,18.8-18h65.1l14.8,6.9c.4-1.4.8-2.9,1.2-4.3ZM472.2,312.4l-14.7-6.8h-64.2l-18.3,17.4c-.6,1-6.5,10.2-13,18.7-3.7,4.8-7.8,9.5-12.2,13.8-4.6,4.5-9.5,8.8-14.5,12.6-4,3.1-8.1,5.8-12.4,8.3-4.3,2.5-8.7,4.7-13.6,6.9-4.8,2.2-10.8,4.6-17.3,6.7-6.3,2-13.1,3.7-19.8,4.4h0c0,0-7.3,0-7.3,0v6.6c1.1-.1,2.1-.3,3.1-.4,1.2-.2,2.4-.4,3.6-.6,3-.6,6.1-1.3,9.4-2.1,3.3-.8,6.6-1.8,9.9-2.8,6.5-2,12.7-4.2,18.7-6.8,6-2.6,11.8-5.6,17.6-8.9,1.6-1,3.3-2,4.9-3,1.4-.9,2.9-1.9,4.3-2.9l-2.1-2.7,13.6-10.6,2,2.5c1.2-1.1,2.4-2.2,3.6-3.4,1.4-1.4,2.7-2.7,4-4.1,11.4-12.3,20.2-27.2,20.2-27.3h0c6.5-6.3,13-12.6,19.5-18.8h58.6l15.3,7.3c.4-1.3.8-2.6,1.2-3.9ZM215.1,101.7v-19.5c-3.2.3-16.1,2-34.6,9.7-6.2,2.6-11.7,5.2-17.1,8.2-5.4,3-10.5,6.3-15.9,10.2-2.4,1.7-4.8,3.6-7.2,5.6-2.3,1.9-4.5,3.8-6.8,5.9l2.2,2.3-12.4,12-2-2.1c-1.3,1.4-2.6,2.9-3.9,4.4-1.4,1.6-2.7,3.2-4,4.9-2.6,3.3-4.9,6.5-7.1,10-2.3,3.5-4.5,7.3-6.9,11.5-5.4,9.4-9.7,18.6-13,28.1-3.3,9.5-5.8,19.3-7.5,30.1-1.1,6.9-1.7,13.5-1.9,20.4-.2,6.8.1,13.8.7,21.4.4,4.8,1,9.5,1.8,14.2.8,4.7,1.8,9.4,3.1,14.1.5,2,1.2,4.1,1.9,6.3.7,2.1,1.4,4.2,2.1,6.3,3,8.3,6.6,16.4,10.9,24.1,4.3,7.8,9.2,15.4,14.6,22.4.8,1,1.6,2,2.3,3h0c.6.8,1.3,1.6,1.9,2.3l3-2.9c-.4-.4-.7-.9-1.1-1.3-4-4.8-7.9-10.1-11.4-15.3-3.4-5.2-6.5-10.7-9.2-16.3-2.7-5.6-5.1-11.4-7.2-17.2-2.7-7.5-4.6-14.6-5.9-21.7-1.3-7.1-2.1-14.3-2.7-22.2-.5-7.6-.4-14,.1-20.4.5-6.4,1.6-12.7,2.9-20.4,1.5-8.7,2.9-15.3,4.9-21.8,2-6.5,4.6-12.8,8.6-21,4.5-9.1,8.9-17,14-24.5,5.1-7.5,11-14.4,18.4-21.5,11.3-10.8,23.3-20,36.3-27.4,13-7.4,27.1-13,42.5-16.7l.9-.2v15.1h4.7ZM208.9,101.7v-13.1c-14.9,3.6-28.5,9.1-41.1,16.3-12.9,7.4-24.8,16.5-36,27.2-7.3,7-13.1,13.9-18.2,21.3-5.1,7.4-9.4,15.3-13.9,24.3-4,8.1-6.6,14.3-8.5,20.7-1.9,6.4-3.3,13-4.8,21.6-1.3,7.6-2.3,13.9-2.9,20.2-.5,6.3-.6,12.6-.1,20.1.5,7.8,1.3,15,2.7,22,1.3,7,3.2,14,5.9,21.4,2.1,5.8,4.5,11.5,7.2,17.1,2.7,5.6,5.7,10.9,9.1,16.1,3.4,5.2,7.3,10.4,11.3,15.2,3.8,4.6,7.7,8.8,11.3,12,5.1,4.6,10.4,9,15.9,13.1,5.5,4.2,11.3,8.1,17.1,11.7,6.1,3.8,12.1,6.6,18.2,9.1,6.2,2.4,12.6,4.4,19.4,6.3,1.8.5,3.6,1,5.3,1.4,1.3.3,2.5.5,3.6.7v-11.9h-4.7v5.3h-.9c-1.5-.4-3.1-.7-4.8-1.2-1.8-.5-3.7-1-5.6-1.7-6.3-2.1-13.2-4.8-19.9-8-6-2.8-11.8-6-16.8-9.4-5.4-3.6-10.6-7.6-15.6-11.8-4.9-4.1-9.5-8.5-13.8-13.2-.4-.4-.8-.9-1.3-1.4-.3-.3-.6-.7-.9-1l-1.4,1.1-10.9-13.4,1.5-1.2-.6-.9c-3.6-5.1-7-10.7-10-16.4-2.9-5.4-5.4-11-7.4-16.6-1.6-4.4-2.9-8.2-4.1-11.9-1.1-3.7-2.1-7.3-2.9-11-1.1-5.2-1.8-10.8-2.2-16.4-.5-6.8-.6-13.6-.6-19.9,0-4.8.3-9.3.8-13.6.5-4.3,1.1-8.5,2-12.6,1-4.9,2.2-9.7,3.5-14.4,1.4-4.7,2.9-9.3,4.7-13.9,2-5.1,4.4-10.3,7-15.4,2.6-5,5.4-9.8,8.5-14.5,3.6-5.4,7.5-10.6,11.7-15.5,4.1-4.8,8.4-9.3,13-13.6l-2.3-2.7.6-.5,12.6-10.7,2.4,2.8c0,0,.2-.1.2-.1,6.2-4.7,12.4-8.6,18.8-12.2,6.4-3.5,13-6.6,20.2-9.4,7.1-2.8,12.1-4.2,12.2-4.2l1-.3v6.8h4.7ZM211.7,394.6v13.6h-.8c-1.3-.3-2.9-.6-4.6-.9-1.7-.4-3.5-.9-5.4-1.4-6.9-1.9-13.3-3.9-19.5-6.4-6.3-2.4-12.4-5.4-18.5-9.2-5.9-3.7-11.6-7.6-17.2-11.8-5-3.7-9.8-7.6-14.4-11.7l-3.4,3.3c.9.9,1.9,1.8,2.8,2.7,1,1,2.2,2,3.4,3.1,4.3,3.8,9,7.6,13.9,11,4.7,3.3,9.5,6.4,14.4,9,3.4,1.8,6.8,3.6,10.4,5.1,3.8,1.7,7.7,3.3,11.4,4.7,6.1,2.3,12.7,4.4,18.9,6,4.5,1.2,8.7,2.1,12.4,2.5h0s0,0,0,0c.4,0,.9,0,1.3.1v-19.8h-5ZM218.2,394.6v20.1c5.4.7,17.9,2.2,30.4,2.2v-22.4h-2.4v-3.5h-21.1v3.6h-2.3v2.2h6.9v-1.4h2.7v-1.9h1.5v1.9h4.7v-1.9h1.5v1.9h2.3v10.5h-2.3v.7h2.3v9h-12.7v-1.2h-8.4v-19.8h-3.1ZM250.1,394.4v22.4c3.5,0,20,0,42.8-6.9,9.6-2.9,19.2-6.9,28.4-11.6,9.6-4.9,18.8-10.6,27.2-16.9,1.6-1.1,3.1-2.3,4.6-3.6,1.3-1.1,2.6-2.2,3.8-3.3l-1.9-1.9,12.2-12.2,2,2c.6-.6,1.2-1.2,1.6-1.7.5-.5,1.1-1.1,1.6-1.8l-4.9-3.8c-.7.9-1.6,2-2.6,3.1-1.3,1.4-2.7,2.9-4.3,4.3-4.7,4.5-9.8,9-15.1,13.2-4.8,3.8-9.9,7.4-15.1,10.6-5.5,3.4-11.9,6.6-18.5,9.5-7.1,3.1-14.4,5.8-20.9,7.8-20.5,6.2-34.4,5.6-34.4,5.5h-.7v-15.1h-5.9ZM374.4,358.7l7.7-10-6.9-5.3-7.7,10,6.9,5.3ZM312.9,364.5l-14.6,7.6-1.6-3.2c-3.8,1.6-7.7,3.1-11.9,4.5-3.9,1.3-8.1,2.5-12.4,3.5v5c1.4-.4,3.1-.9,5-1.5,2.3-.7,5-1.6,7.8-2.5,4.6-1.5,8.9-2.9,13-4.5,4.1-1.5,7.9-3.2,11.8-5.2,4.7-2.4,11.2-6.6,17.3-11.2,6-4.4,11.8-9.2,15.3-12.8,14.2-14.7,23.7-33.6,23.7-33.6h0c6.2-6.4,12.3-12.8,18.5-19.1h8.6v-3.7h-13.6l-15.5,16.2c-.5,1.1-4.1,9.7-9.8,18.7-3.7,5.9-8.9,11.9-14.6,17.4-6.5,6.3-13.6,12-20.2,16.3-1.3.8-2.6,1.7-4,2.6-1.2.7-2.5,1.5-3.7,2.2l1.5,2.9-.7.3ZM272.3,375.4c4.2-1,8.1-2.1,11.9-3.4,4.2-1.4,8.1-2.9,11.7-4.4l-1.7-3.3c-8.2,5.7-19,6.7-22,6.8v4.3ZM272.3,369.6c1.2,0,3.7-.3,6.8-.9v-5.1h-2.1v-7.9h2.1v-7h-.6s0,0,0,0h-6.2v20.8ZM280.5,348.8v7h4v-7c-1.3,0-2.7,0-4,0ZM286.1,348.8v7h1.9v1.3h16.7l4.1-2.1,2.6,5c1.3-.7,2.5-1.5,3.6-2.2,1.4-.8,2.7-1.7,4-2.6,6.5-4.3,13.6-9.9,20-16.1,5.6-5.4,10.7-11.3,14.4-17.1,6-9.5,9.7-18.6,9.7-18.6h0c5.4-5.8,10.7-11.4,16.1-17h14.2v-4.6h-5.5v-1.5h5.5v-6h-16.6l-25.3-25.4v-1.8h-8.8v-9h17.7v9h-7.4v1.1l24.4,24.5h16v-4.5h-12c-4.1-4.8-8.3-9.5-12.4-14.3v-.3s0-14.9-2.4-29.5c-.8-5.1-2-9.9-3.5-14.5-1.5-4.6-3.3-9.2-5.5-13.9-2.1-4.6-4.3-8.9-6.8-13-2.5-4.2-5.2-8.2-8.3-12.1-4-5-8.4-9.7-13.1-14.1-4.8-4.5-10-8.5-15.3-12.1-4.9-3.4-9.9-6.1-15.3-8.6-3.8-1.8-7.8-3.4-12.1-5v1.7h3.1v9.3h-3.1v6c.5,0,1.1,0,1.6,0,4.6.3,8.3.7,11.4,1.1,6.6,1,13.1,3.2,18.9,6.5,5.7,3.2,10.8,7.5,14.8,12.7,4.5,5.7,7,12.1,8.2,18.7,1.2,6.7,1,13.6,0,20.5-.5,3.1-1.2,6.2-2.4,9.1-1.2,2.9-2.8,5.7-5,8.4-4.9,5.8-11,9.6-13.9,11.2,3.8,1.2,7.2,2.6,10.2,4.1,3.9,2,7.3,4.1,10.1,6.4,5.1,4.1,9,8.7,11.8,13.9,2.8,5.2,4.5,11.1,5,17.6.6,6.6.3,13.7-1.1,20.5-1.2,6.1-3.4,12-6.5,17.1-2.9,4.7-6.2,8.9-10,12.7-3.8,3.8-8,7.1-12.7,9.9-2.9,1.7-5.9,3.2-8.8,4.4-2.9,1.2-5.8,2.2-8.5,2.9-8.9,2.5-15.7,3-23.6,3.1ZM285.2,147.8v-5.9h-4.8v5.8c1.7,0,3.3,0,4.8.1ZM278.9,147.6v-5.8h-1.7v-1.4h-4.6v7.2c2.2,0,4.4,0,6.4,0ZM272.5,138.9h4.6v-3.4h-4.6v3.4ZM272.5,134h4.6v-1.4h1.7v-4.4c-.9-.3-1.7-.5-2.6-.8-1.3-.4-2.5-.7-3.8-1v7.6ZM293.5,362.9h0c0,0,8.3-4.4,8.3-4.4h-13.7v5.1h-7.5v4.8c4.1-.9,8.9-2.6,13-5.5ZM298.9,370l12.6-6.5-3.4-6.6-12.6,6.5,3.4,6.6ZM360.9,376.5l10-10.1-3.7-3.7-10,10.1,3.7,3.7ZM318.6,373.5l12.2-7.2-2.7-4.5-12.2,7.2,2.7,4.5ZM339.6,375.1l11.2-8.8-3.2-4.1-11.2,8.8,3.2,4.1ZM126.3,297.3l5.3,8.9,10.7-13.6h.8v-4.4h-9.2l-7.6,9.1ZM134.3,311.1l-3.6,2.1c1.8,2.7,10,15.3,17.1,22.1l1.2-5.7c-5.8-5.2-11.6-13.5-14.8-18.5ZM147.5,337c-7.5-6.8-16.3-20.3-18-23l-2.2,1.3-8.8-14.8,6.4-3.8,8.3-9.9h9.9v-1.5h7.5v-2.3h-7.5v-1.2h-17.2l-10.8,11c.4,1.1,1.5,4.4,3.1,8.3,2.1,5.1,4.6,10,7.5,14.8,2.9,4.8,6,9.4,9.2,13.8,2,2.8,4.3,5.7,6.5,8.3,1.6,1.8,3.2,3.5,4.8,5l1.3-6ZM145.8,344.7c-1.8-1.6-3.7-3.6-5.6-5.7-2.3-2.7-4.6-5.6-6.6-8.4-3.2-4.5-6.4-9.1-9.3-13.9-2.9-4.8-5.5-9.8-7.6-15-2-5-3.3-8.9-3.3-8.9v-.4c3.8-4,7.8-8,11.8-12.1h17.8v-4.7h-23.9l-11.6,12.2c.5,2,2.9,10.7,6.1,18.8.7,1.7,1.5,3.6,2.4,5.4.9,1.8,1.9,3.6,2.9,5.4l2.7-1.7.4.6,8.9,13.9-2.5,1.6c.4.5.8,1.1,1.2,1.6.5.7,1,1.4,1.5,2,2.2,2.9,5.1,6.4,8.1,9.5,2.2,2.3,4.5,4.5,6.6,6.2l42,1v-2.7l-42.3-3.3.3-1.4ZM189.3,349.5v6.2h3.5v-5.9l-3.5-.3ZM194.3,349.9v5.8h1.4v7.9h-1.4v4.5h1.4v7.7c.6.3,1.2.5,1.8.7.5.2.9.4,1.4.5v-26.9l-4.6-.4ZM198.8,378.8c-.7-.2-1.3-.5-1.9-.7-.7-.3-1.4-.5-2-.8h-9.7v-4.3c-14.7-7.1-20.8-13.3-20.8-13.3l-1.3-1.3h22v-2.6h2.5v-2.1l-40.3-1c5.1,4.9,24.3,22,51.3,29.9v-3.8ZM198.8,384.1c-29.7-8.5-50.1-28.1-53.3-31.3-2.3-1.8-4.9-4.2-7.4-6.9-3-3.2-6-6.7-8.2-9.7-.5-.7-1-1.3-1.5-2-.4-.5-.8-1.1-1.2-1.7l-3.2,2-9.3-14.5,3-1.9c-1.1-1.9-2.1-3.7-3-5.5-.9-1.9-1.8-3.7-2.5-5.5-3.7-9.3-6.2-19.4-6.2-19.4v-.4c-.1,0,12.5-13.3,12.5-13.3h24.5v-1.3h7.5v-.9h-7.5v-1.3h-32.5l-13,10.6c.6,2.3,3.6,13.1,6.9,22.3.9,2.6,2,5.2,3.2,7.8,1.2,2.5,2.5,5,3.8,7.5,4.7,8.5,10.2,16.6,16.3,24.1,6.1,7.4,12.9,14.2,20.2,20.3,4.3,3.5,8.9,7,13.6,10.1,4.7,3.1,9.4,6,13.9,8.2,3.1,1.6,6.2,3.1,9.3,4.4,3.1,1.4,6.2,2.7,9.2,3.7,1,.4,2,.7,3,1.1.6.2,1.2.4,1.8.6v-7.1ZM198.8,392.8c-.8-.2-1.5-.5-2.3-.7-1-.3-2.1-.7-3.1-1.1-3-1.1-6.1-2.4-9.3-3.8-3.1-1.4-6.2-2.9-9.3-4.5-4.5-2.3-9.2-5.2-14-8.3-4.7-3.1-9.4-6.6-13.7-10.2-5.9-4.8-11.4-10.1-16.4-15.8l-3.5,2.8c.3.3.6.6.8.9.4.4.8.9,1.3,1.4,4.3,4.6,8.9,9,13.7,13.1,4.9,4.2,10.1,8.1,15.5,11.7,4.9,3.3,10.6,6.5,16.6,9.3,6.6,3.1,13.5,5.9,19.7,7.9,1.9.6,3.7,1.2,5.5,1.6,1.3.3,2.5.6,3.7.8v-3.6h-5.1v-1.8ZM202.7,101.7v-4.8c-1.8.6-5.8,1.9-11.1,3.9-7.1,2.8-13.7,5.8-20,9.3-6.3,3.5-12.5,7.5-18.6,12.1h0c0,0,2,2.4,2,2.4l-13.1,11.2-2.1-2.4c-4.5,4.2-8.8,8.7-12.8,13.4-4.2,4.9-8,10-11.6,15.4-3,4.6-5.8,9.4-8.4,14.3-2.6,5-4.9,10.1-6.9,15.2-1.8,4.5-3.3,9.1-4.7,13.7-1.4,4.7-2.5,9.4-3.5,14.2-.8,4.1-1.5,8.2-2,12.5-.5,4.3-.7,8.7-.8,13.4,0,6.2,0,13.1.6,19.8.4,5.6,1.1,11.1,2.2,16.2.8,3.6,1.7,7.1,2.8,10.8,1.1,3.7,2.5,7.5,4,11.9,2,5.5,4.5,11,7.3,16.4,3,5.7,6.4,11.2,9.9,16.3l.6.8,3.5-2.8c-3.6-5-6.8-10.2-9.8-15.5-1.4-2.5-2.7-5-3.9-7.6-1.2-2.6-2.3-5.2-3.2-7.9-3.7-10.4-7-22.9-7-22.9v-.5c4.6-3.9,9.3-7.7,14.1-11.6h33v-5.8h-36.7c-1.1-1.1-12.8-12.7-12.8-12.7,0,0-.4-5.7.1-13.6.3-4.1.7-8.9,1.5-13.8,1.3-8.2,3.4-16,6.2-23.6,2.8-7.6,6.2-14.9,10-22.2,4.8-9.3,11.3-18.7,18.7-27.4,7.5-8.8,15.9-16.9,24.4-23.4,4.5-3.4,9.2-6.6,14.1-9.6,5.1-3.1,10.4-6,15.8-8.7,2.5-1.2,5-2.4,7.7-3.5,2.3-1,4.6-1.9,6.9-2.7v-.2h3.6ZM199,103.6c-2.1.8-4.2,1.6-6.3,2.5-2.6,1.1-5.1,2.3-7.6,3.5-5.3,2.6-10.6,5.5-15.7,8.6-4.8,2.9-9.5,6.1-14,9.5-8.4,6.4-16.7,14.4-24.2,23.1-7.3,8.6-13.8,17.9-18.5,27.1-3.8,7.2-7.2,14.5-9.9,22-2.8,7.5-4.9,15.2-6.1,23.3-.8,5-1.2,9.7-1.5,13.7-.5,7.5-.6,12.5-.6,12.5l12.3,12.3h43.6v-3.5h-36.8c-5.1-5.8-10.1-11.7-15.2-17.5v-.3c0,0,2.1-17.6,7.2-35.8,2.5-9,5.6-17.2,9.6-25,3.9-7.8,8.7-15.1,14.6-22.5,3.4-4.3,7-8.4,10.9-12.3,3.8-3.8,7.9-7.5,12.1-10.9.7-.5,1.3-1.1,2-1.6.5-.4,1-.8,1.5-1.2l-1.6-2.4.6-.4,13.7-9.2,1.6,2.3c2.5-1.5,5-2.9,7.6-4.3,2.8-1.5,5.7-2.9,8.5-4.2,2-.9,4.1-1.8,6.2-2.7,1.9-.8,3.9-1.5,5.9-2.2v-4.6ZM199,109.7c-1.8.6-3.6,1.3-5.4,2-2.1.8-4.1,1.7-6.2,2.7-2.9,1.3-5.7,2.7-8.5,4.2-2.5,1.3-5,2.7-7.5,4.2l2.2,3.3-14.3,9.6-2.2-3.3c-.5.4-.9.7-1.4,1.1-.7.5-1.3,1-2,1.6-4.2,3.4-8.2,7-12,10.8-3.8,3.8-7.4,7.9-10.8,12.1-5.8,7.3-10.5,14.6-14.4,22.2-3.9,7.7-7,15.8-9.5,24.7-4.6,16.6-6.7,32.7-7.1,35.2l14.3,16.5h28.6v-4.6h-23c-5.1-5.5-10.2-11-15.4-16.5v-.4c0,0,2.5-18.9,8-35,1.4-4.1,3.2-8.3,5.2-12.4,2-4.1,4.2-8.2,6.3-11.9,1.9-3.4,4-6.9,6.3-10.2,2.3-3.3,4.8-6.5,7.6-9.3.7-.7,1.4-1.4,2.1-2.1.6-.5,1.2-1.1,1.8-1.6v-5.2h5.3c2.2-2.3,20.5-20.6,51.6-32.4v-5.3ZM142.2,154.6c-.3.2-.5.5-.8.7-.7.7-1.4,1.3-2,2-2.7,2.7-5.1,5.9-7.4,9.2-2.3,3.3-4.4,6.7-6.3,10.1-2.1,3.7-4.3,7.7-6.2,11.8-2,4.1-3.8,8.2-5.2,12.3-5.1,14.7-7.5,31.8-7.9,34.4l14.4,15.5h22.4v-2.5h7.5v-.9h-24.2l-14.2-15.9v-.3s1.2-10.9,4.5-22.8c1.8-6.5,3.8-11.8,6.3-16.9,2.5-5.1,5.5-9.8,9.2-15.3,1.7-2.5,3.6-5.1,5.5-7.4,1.5-1.8,3-3.4,4.4-4.7v-9.2ZM142.2,165.8c-1.1,1-2.2,2.3-3.3,3.6-1.9,2.3-3.7,4.8-5.4,7.3-3.7,5.4-6.7,10.1-9.1,15.1-2.5,5-4.4,10.2-6.2,16.6-2.9,10.7-4.1,20.4-4.3,22.3l13.3,14.8h16v-6h-11.1c-4.3-4.9-8.6-9.8-12.9-14.6v-.4c0,0,5.5-32.3,23-50.9v-7.9ZM142.2,175.9c-15.4,17.3-20.8,45.2-21.4,48.6l11.9,13.6h10.4v-1.2h7.5v-4.6h-14.1l-10.7-12.8v-.4c.1,0,6.8-26.3,21.1-42.7h-4.7v-.4ZM148.9,176.3c-13.6,14.9-20.6,39.4-21.4,42.7l9.8,11.7h41.5v-3.4h-33.7c-3.6-4.4-7.1-8.8-10.7-13.2v-.4c.2,0,8.3-23.8,19.1-37.5h-4.6ZM178.8,232.2h-19.2v4.6h7.5v1.2h11.7v-5.9ZM178.8,239.6h-11.7v5.9h11.7v-5.9ZM178.8,247.1h-19.2v.9h7.5v2.5h11.7v-3.5ZM178.8,252h-11.7v4.6h11.7v-4.6ZM178.8,258.2h-19.2v3.5h19.2v-3.5ZM178.8,263.2h-11.7v5.8h11.7v-5.8ZM178.8,270.6h-11.7v1.3h-7.5v.9h7.5v1.2h11.7v-3.5ZM178.8,275.6h-11.7v4.7h11.7v-4.7ZM178.8,281.8h-11.7v1.2h-7.5v2.3h7.5v2.4h11.7v-5.8ZM178.8,289.1h-11.7v3.4h11.7v-3.4ZM178.8,294.1h-11.7v1.3h-7.5v4.6h19.2v-6ZM178.8,301.6h-6.7v3.7h2.4v11.1h4.3v-14.7ZM173,316.3v-9.6h-8.6v9.6h8.6ZM162.9,316.3v-11.1h2.5v-3.7h-13.8l-8.3,8.4c.6,1.4,2.9,5.9,7.8,10.2l.8-3.9h10.9ZM150.8,321.8c-6.7-5.7-9-11.8-9-11.8l-.2-.5,9-9.1v-5.1h-7.5v-1.3h0l-9.8,12.4c1.5,2.4,8.8,14.4,16.2,21.4l1.3-6.1ZM132.3,310.5l-7.2-12.2-4.5,2.7,7.2,12.2,4.5-2.7ZM129.9,366l-9.9-10.2-3.8,3.7,9.9,10.2,3.8-3.7ZM128.9,347.9l-9-11-4.1,3.3,9,11,4.1-3.3ZM128.9,329.8l-7.7-12-4.4,2.8,7.7,12,4.4-2.8ZM365.3,191.7l-6.6-12.6-4.7,2.4,6.6,12.6,4.7-2.4ZM369.9,171.9l-7.9-11.8-4.4,2.9,7.9,11.8,4.4-2.9ZM369.9,151.8l-9.2-10.9-4,3.4,9.2,10.9,4-3.4ZM370.4,132.7l-9.7-10.4-3.9,3.6,9.7,10.4,3.9-3.6ZM130,120.2l-10.2,9.9,3.7,3.8,10.2-9.9-3.7-3.8ZM149.3,120.4l-10.8,9.2,3.4,4,10.8-9.2-3.4-4ZM168.8,121.3l-11.8,7.9,2.9,4.4,11.8-7.9-2.9-4.4ZM175,130.3l14.5-7.9,1.3,2.3c1.3-.7,2.7-1.4,4-2,1.4-.7,2.8-1.4,4.3-2.1v-4c-27.6,10.5-44.8,26.2-49.4,30.8h6.9c1.2-1.1,7.7-6.8,19.3-14.1l-1.4-2.7.7-.4ZM199,122.3c-1.2.6-2.4,1.2-3.6,1.8-1.4.7-2.7,1.4-3.9,2l2,3.6-4.5,2.4c3.3-1.5,6.7-2.9,10.1-3.8v-6ZM199,129.9c-13.7,4-26.9,13.9-31.4,17.5h31.4v-17.5ZM165.3,147.4c1.1-1,6.6-5.5,14.1-10.1l-1.1.6-1.8-3.3c-9.3,5.8-15.2,10.6-17.8,12.8h6.5ZM188.9,124.5l-12.5,6.8,2.5,4.6,12.5-6.8-2.5-4.6ZM389.4,349.6s-9.7,15.4-27.4,31.2c-9.9,8.8-21.1,16.3-33,22.5-12.6,6.6-26.1,11.6-39.6,15.2-15,3.9-30.9,5.8-46.8,5.7-16-.2-32-2.4-46.9-6.6-20.1-5.7-38.9-15.3-55.6-27.9-17.3-12.9-32.3-28.9-44-46.8-4.4-6.7-7.9-13-10.9-19.6-3-6.6-5.6-13.3-8.2-20.9-2.9-8.7-4.8-16-6-23.3-1.2-7.4-1.8-14.8-2.1-24.1-.5-12.8.5-25.5,2.9-37.9,2.4-12.7,6.2-25.2,11.2-37.3,2.3-5.5,4.9-10.9,7.8-16.2,2.9-5.3,6.2-10.6,9.8-15.9,3.8-5.6,7.9-10.8,12.4-15.9,4.5-5.1,9.4-10.1,15-15.3,9.7-9.1,19.5-16.4,30.1-22.4,10.6-6,22-10.8,34.8-14.9,13.1-4.2,26.4-6.7,39.8-7.7,13.4-1,27-.6,40.7,1,11.3,1.3,22.8,4.5,33.8,8.8,12.4,4.8,24.2,11,34.6,17.8,7.2,4.7,14.6,10.6,21.5,17,7.6,7,14.7,14.6,20.5,21.8,5.5,6.8,10.5,14.4,14.9,22.4,4.8,8.7,8.9,17.8,12.2,26.8.6,1.5,1.1,3.1,1.6,4.6.4,1.3.9,2.6,1.3,3.9h3.4c-1.2-3-4.8-12.2-8.4-21-3.1-7.6-5.6-13.3-8.6-18.9-3-5.5-6.5-10.9-11.5-17.7-3.8-5.2-8.6-10.8-13.7-16.1-5.6-5.8-11.5-11.4-16.9-15.9-7-5.8-14.4-10.8-22.1-15.2-7.7-4.4-15.8-8.2-24.3-11.6-12.7-5.1-24.1-8.3-35.8-10.1-11.7-1.8-23.6-2.2-37.3-2-9.9.2-18.7,1-27.8,2.9-9.1,1.9-18.6,4.8-30,8.9-9.6,3.5-17.7,7.3-25.5,11.8-7.8,4.5-15.2,9.7-23.4,16.1-5.7,4.4-10.9,9.2-15.9,14.3-5,5.1-9.6,10.5-14.1,16.1-4.8,6-9,12.1-12.7,18.4-3.7,6.3-7,12.9-10.2,20-3,6.7-5.3,13.4-7.2,20.1-1.9,6.8-3.4,13.6-4.8,20.8-1.7,8.5-2.6,15.2-2.9,21.8-.3,6.6,0,13.3.5,21.8.5,7.6,1.3,14.6,2.6,21.4,1.2,6.9,2.9,13.6,5.3,21,2.5,7.9,5.5,15.5,9,22.9,3.5,7.4,7.4,14.5,11.9,21.5,1.3,2,2.6,3.9,4,5.9,1.4,1.9,2.8,3.8,4.3,5.8,4.3,5.6,9.1,11,14,16.1,5,5.1,10.2,9.9,15.3,14,9.6,7.8,21.2,14.8,33.4,20.7,12.8,6.2,26.3,11.1,39.1,14.3,9.7,2.4,19.2,3.8,29.1,4.3,9.9.5,20.2,0,31.4-1.3,12.9-1.5,25.3-3.9,37.3-7.6,12.1-3.6,23.8-8.5,35.3-14.6,6.4-3.5,12.9-7.8,19.1-12.6,7.1-5.5,13.8-11.5,19.7-17.4,5.2-5.2,10.6-11.6,15.5-18.4,5-6.8,9.5-13.9,12.8-20.2,1.5-2.9,3-6.1,4.5-9.5,1.3-3.1,2.5-6.3,3.7-9.7l1.4.5c-1.2,3.4-2.4,6.7-3.7,9.8-1.4,3.4-3,6.6-4.5,9.6-3.3,6.4-7.9,13.6-12.9,20.4-5,6.8-10.5,13.3-15.7,18.5-5.9,5.9-12.7,12-19.8,17.5-6.3,4.8-12.8,9.3-19.3,12.8-11.6,6.2-23.4,11.1-35.5,14.8-12.1,3.7-24.6,6.2-37.6,7.6-11.3,1.3-21.7,1.8-31.7,1.3-10-.5-19.6-1.9-29.4-4.3-12.8-3.2-26.4-8.1-39.4-14.4-12.3-5.9-24-13.1-33.7-20.9-5.2-4.2-10.4-9-15.4-14.1-5-5.1-9.8-10.6-14.1-16.2-1.5-1.9-2.9-3.9-4.3-5.8-1.4-2-2.7-3.9-4-5.9-4.5-7-8.5-14.2-12-21.7-3.5-7.4-6.5-15.1-9.1-23.1-2.3-7.4-4.1-14.2-5.3-21.1-1.3-6.9-2.1-13.9-2.6-21.6-.6-8.6-.8-15.3-.5-22,.3-6.7,1.2-13.4,2.9-22,1.4-7.2,3-14.1,4.9-20.9,1.9-6.8,4.2-13.5,7.2-20.3,3.1-7.1,6.5-13.8,10.2-20.2,3.8-6.4,8-12.5,12.8-18.6,4.5-5.7,9.2-11.1,14.2-16.3,5-5.2,10.3-10,16-14.4,8.3-6.4,15.8-11.7,23.6-16.2,7.8-4.6,16-8.4,25.7-12,11.4-4.2,20.9-7.1,30.2-9,9.2-1.9,18.1-2.8,28.1-3,13.8-.2,25.8.2,37.6,2,11.8,1.8,23.3,5,36.1,10.2,8.5,3.4,16.7,7.3,24.5,11.7,7.8,4.4,15.3,9.5,22.3,15.3,5.4,4.5,11.4,10.1,17.1,16,5.2,5.4,10,11,13.9,16.3,5,6.9,8.6,12.3,11.6,17.9,3.1,5.6,5.6,11.4,8.7,19,4.3,10.6,8.8,22.1,8.8,22.1l.4,1h-6.8l-.2-.5c-.5-1.5-.9-3-1.4-4.4-.5-1.6-1.1-3.1-1.6-4.6-3.3-8.9-7.4-17.9-12.1-26.6-4.4-7.9-9.3-15.5-14.8-22.2-5.8-7.1-12.8-14.7-20.4-21.6-6.9-6.3-14.2-12.2-21.3-16.8-10.3-6.7-22.1-12.9-34.3-17.7-11-4.3-22.3-7.4-33.5-8.7-13.6-1.6-27.1-2-40.4-1-13.3,1-26.5,3.4-39.5,7.6-12.7,4.1-24,8.8-34.5,14.8-10.5,6-20.3,13.2-29.9,22.2-5.5,5.2-10.4,10.1-14.9,15.2-4.5,5-8.5,10.2-12.3,15.7-3.6,5.3-6.9,10.5-9.8,15.8-2.9,5.3-5.5,10.6-7.8,16.1-5,12.1-8.8,24.4-11.1,37-2.3,12.3-3.3,24.9-2.8,37.6.3,9.2.9,16.6,2.1,23.9,1.2,7.3,3.1,14.4,6,23.1,2.5,7.5,5.1,14.2,8.1,20.7,3,6.5,6.5,12.8,10.8,19.4,11.7,17.7,26.6,33.6,43.7,46.4,16.6,12.4,35.3,22,55.1,27.6,14.8,4.2,30.6,6.4,46.5,6.5,15.8.2,31.6-1.7,46.5-5.6,13.4-3.5,26.8-8.6,39.3-15.1,11.8-6.1,22.9-13.5,32.7-22.3,17.5-15.6,27.1-30.8,27.1-30.8l1.3.8ZM418.4,320.3s-3.7,10.6-11,23.7c-4.7,8.5-10.6,16.9-17.2,24.7-6.9,8.2-14.5,15.9-22.2,22.5-9,7.7-19.6,14.9-30.8,21-11.2,6.2-23,11.3-34.4,14.8-15.9,4.9-33,7.6-50,8.3-17.6.7-35.1-.7-51-4.2-14.1-3.1-28.7-8.7-42.5-15.9-14.3-7.5-27.7-16.6-38.7-26.5-11.9-10.6-22.5-23.2-31.4-36.9-9.1-13.9-16.5-29-21.7-44.3-3.3-9.8-5.8-19.7-7.5-29.9-1.7-10.2-2.5-20.7-2.6-31.2,0-7.5.4-14.9,1.4-22.4,1-7.5,2.4-15,4.4-22.8,1.5-6,3.4-11.9,5.6-17.8,2.2-5.9,4.7-11.7,7.6-17.7,4.2-8.7,9.1-17,14.7-24.8,5.5-7.9,11.7-15.3,18.4-22.2,5.2-5.4,10.8-10.5,16.6-15.2,5.8-4.8,11.9-9.2,17.9-13.1,11.4-7.4,22.8-13.4,34.6-18.1,11.9-4.7,24.3-8.1,37.8-10.2,10.5-1.6,20.6-2.4,30.8-2.2,10.2.1,20.3,1.1,30.9,2.9,8.9,1.5,18,3.9,26.9,6.9,9.1,3.1,17.9,6.9,26.2,11.1,7.2,3.7,14.4,8,21.3,12.8,6.8,4.7,13.3,9.8,19.3,15.1,6.2,5.5,11.8,11.3,17,17.4,5.2,6.1,9.9,12.6,14.3,19.7,1.3,2.1,2.6,4.3,3.9,6.5,1.2,2.2,2.5,4.3,3.7,6.6,2.6,4.9,5.2,10,7.6,15.3,2,4.6,3.9,9.3,5.4,14,.9,2.8,1.7,5.5,2.5,8.3.8,2.7,1.5,5.5,2.2,8.1.4,1.7.9,3.4,1.2,5,.3,1.4.5,2.7.7,3.9h7.3c-.1-.7-.2-1.3-.3-1.9-.1-.6-.2-1.3-.4-2.1l-5.1,1c-1.7-8.2-3.4-16.5-5-24.7l3.7-.8c-.5-1.6-1.1-3.2-1.6-4.7-.6-1.6-1.2-3.2-1.8-4.9l-4.1,1.7c-3.2-7.8-6.3-15.6-9.5-23.4l3-1.2c-.6-1.2-1.3-2.3-2-3.5-.7-1.3-1.5-2.5-2.2-3.7l-3.3,2.3c-4.8-6.9-9.5-13.9-14.3-20.8l3.2-2.2c-.9-1.1-1.8-2.3-2.8-3.4-1-1.2-1.9-2.3-2.9-3.4l-2.9,2.8c-5.9-6-11.7-12-17.6-18.1l2.7-2.7c-1.1-1-2.2-1.9-3.3-2.9-1.2-1-2.3-1.9-3.5-2.9l-2.4,3.3-20.3-14.9,2.2-3c-1.3-.8-2.7-1.6-4-2.4-1.4-.8-2.7-1.6-4.2-2.4l-1.9,4-22.7-11.1,1.8-3.7c-1.4-.5-2.8-1.1-4.2-1.6-1.4-.5-2.9-1.1-4.3-1.5l-1.4,4.8-24.3-6.8,1.3-4.6c-1.5-.3-2.9-.6-4.3-.8-1.4-.3-2.9-.5-4.4-.7l-.2,3.8c-8.4-.4-16.8-.7-25.2-1.1l.2-5c-.8,0-1.6,0-2.3,0-1,0-2,0-3,0s-1.6,0-2.3,0c-.5,0-1.1,0-1.6,0l.2,4.9-25.2.9v-3.7c-1.8.2-3.4.5-5.1.8-1.7.3-3.4.6-5.1,1l1.1,4.9-24.6,5.4-.8-3.7c-1.6.5-3.2,1.1-4.7,1.7-1.6.6-3.2,1.2-4.8,1.9l1.5,3.2-22.8,10.7-1.4-3c-1.2.7-2.4,1.4-3.6,2.1-1.2.7-2.4,1.4-3.6,2.2l2.1,2.9-20.4,14.9-2.3-3.2c-1.1.9-2.2,1.8-3.3,2.8-1.1,1-2.2,1.9-3.3,2.9l2.7,2.7-17.8,17.8-2.6-2.6c-.9,1.1-1.9,2.2-2.8,3.3-.9,1.1-1.9,2.3-2.8,3.4l3.4,2.5-14.8,20.4-3.1-2.2c-.8,1.3-1.6,2.7-2.4,4.1-.8,1.4-1.6,2.8-2.3,4.1l3.4,1.4-9.7,23.3-4.3-1.8c-.6,1.5-1.1,3-1.7,4.5-.5,1.5-1.1,3-1.6,4.5l4.3,1-5.8,24.5-4.8-1.1c-.3,1.5-.5,2.9-.8,4.3-.2,1.4-.5,2.9-.7,4.3h3.5v25.2h-5.6c0,.5,0,1,0,1.5,0,.5,0,1.3,0,2.2s0,2.3,0,3.2c0,.8,0,1.6,0,2.5l4.8-.3,1.7,25.2-4.2.3c.3,1.7.5,3.3.8,4.9.3,1.6.6,3.2,1,4.9l5.2-1.2,5.6,24.6-4.1,1c.6,1.7,1.2,3.3,1.8,5,.6,1.7,1.3,3.3,1.9,4.9l3.9-1.8,10.4,23-3.3,1.5c.7,1.2,1.4,2.4,2.1,3.6.7,1.2,1.4,2.3,2.1,3.4l3.1-2.3,15.3,20.1-3.6,2.8c1,1.2,1.9,2.3,2.9,3.5,1,1.1,2,2.3,3,3.4l2.9-3,18.2,17.5-3.1,3.2c1.1.9,2.2,1.9,3.3,2.8,1.1.9,2.2,1.8,3.4,2.7l2.7-3.7,20.4,14.8-2.3,3.2c1.4.9,2.9,1.7,4.3,2.5,1.4.8,2.9,1.6,4.3,2.4l2-4.2,22.8,10.8-1.8,3.7c1.4.5,2.9,1.1,4.3,1.5,1.3.5,2.7.9,4.2,1.4l1.1-4.5,24.5,5.9-1.1,4.7c1.4.3,2.8.5,4.3.8,1.4.2,2.8.5,4.2.7v-3.9c0,0,25.3.6,25.3.6v5.2c-.1,0,.6,0,.6,0h1.4c1.3,0,2.7,0,4.1,0,1.1,0,2.2,0,3.3,0l-.2-5c8.4-.3,16.8-.7,25.2-1v3.5c1.2-.2,2.3-.4,3.4-.6,1.1-.2,2.1-.4,3.2-.6l-1.2-3.8,24.1-7.5,1.4,4.7c1.5-.5,3-1,4.5-1.6,1.5-.5,2.9-1.1,4.3-1.6l-1.8-4c7.6-3.5,15.3-7,22.9-10.5l1.7,3.7c1.3-.7,2.6-1.5,3.9-2.2,1.3-.7,2.5-1.5,3.8-2.3l-2.5-3.6c6.9-4.8,13.8-9.6,20.7-14.4l2.4,3.4c1.2-1,2.4-2,3.6-3,1.2-1,2.3-2,3.5-3l-3-2.9,17.7-18,3,3c1-1.1,1.9-2.3,2.9-3.4.9-1.1,1.9-2.3,2.9-3.5l-3.9-2.8,14.6-20.6,3.7,2.6c.7-1.1,1.3-2.2,2-3.3.7-1.1,1.3-2.3,1.9-3.4l-4.8-2.3c3.6-7.6,7.3-15.2,10.9-22.7l10.7,5.1c-3.6,7.6-7.3,15.2-10.9,22.7l-.7-.3-3.8-1.8c-.7,1.2-1.3,2.3-2,3.5-.7,1.2-1.3,2.3-2,3.4l4.7,3.3c-4.9,6.9-9.7,13.7-14.6,20.6l-.6-.4-3.9-2.8c-.9,1.2-1.9,2.4-2.9,3.6-1,1.2-2,2.4-3,3.5l4.3,4.3-17.7,18-.5-.5-3.9-3.8c-1.2,1-2.4,2.1-3.6,3.1-1.2,1-2.5,2-3.7,3l3.5,5.1-20.7,14.4-.4-.6-3-4.3c-1.3.8-2.6,1.6-3.9,2.4-1.4.8-2.7,1.6-4,2.3l2.6,5.7-22.9,10.5-.3-.7-2.1-4.7c-1.5.6-3,1.2-4.4,1.7-1.5.5-3,1.1-4.5,1.6l1.6,5.2-24.1,7.5-.2-.7-1.7-5.4c-1.1.2-2.2.4-3.4.6-1.2.2-2.3.4-3.5.6l.3,6.8-25.2,1v-.8s-.2-4.6-.2-4.6c-1.1,0-2.2,0-3.3,0-1.4,0-2.7,0-4.1,0h0s-1.4,0-1.4,0h-.8s-.1,5.1-.1,5.1l-25.2-.6v-.8s.1-5.7.1-5.7c-1.5-.2-3-.4-4.5-.7-1.5-.2-2.9-.5-4.4-.8l-1.3,5.3-24.5-5.9.2-.7,1.2-4.8c-1.4-.5-2.9-.9-4.3-1.5h0c-1.5-.5-3-1.1-4.4-1.6l-2.7,5.6-22.8-10.8.3-.7,2.1-4.5c-1.5-.8-3-1.6-4.4-2.4-1.5-.8-3-1.7-4.5-2.6l-3.8,5.2-20.4-14.8.4-.6,3-4.1c-1.2-.9-2.3-1.8-3.4-2.8-1.1-.9-2.3-1.9-3.4-2.9l-4.1,4.2-18.2-17.5.5-.5,3.7-3.9c-1-1.1-2.1-2.3-3.1-3.5-1-1.2-2-2.4-3-3.6l-4.6,3.5-15.3-20.1.6-.5,4.5-3.5c-.7-1.2-1.5-2.4-2.2-3.6-.7-1.3-1.5-2.5-2.2-3.7l-6.1,2.8-10.4-23,.7-.3,4.8-2.2c-.7-1.7-1.4-3.4-2-5-.7-1.7-1.3-3.4-1.9-5.2l-5.9,1.4-5.6-24.6.7-.2,4.1-.9c-.3-1.6-.7-3.2-1-4.9-.3-1.7-.6-3.4-.9-5.1l-6.1.4-1.7-25.2h.8s4.7-.4,4.7-.4c0-.8,0-1.7,0-2.5,0-1.2,0-2.3,0-3.2s0-1.3,0-2.2c0-.5,0-1,0-1.5h-4.8v-25.2h6.8c.2-1.5.5-3,.7-4.6.3-1.5.5-3,.8-4.4l-5.3-1.3,5.8-24.5.7.2,5,1.2c.5-1.6,1.1-3.1,1.6-4.7.5-1.5,1.1-3.1,1.7-4.6l-5.3-2.2,9.7-23.3.7.3,5.4,2.3c.8-1.5,1.6-2.9,2.4-4.3.8-1.4,1.6-2.8,2.5-4.2l-5.3-3.8,14.8-20.4.6.4,4.3,3.1c.9-1.2,1.9-2.3,2.8-3.5,1-1.1,1.9-2.3,2.9-3.4l-4.7-4.7,17.8-17.8.5.5,4.1,4.1c1.1-1,2.3-2,3.4-3,1.1-1,2.3-1.9,3.4-2.8l-3.8-5.2,20.4-14.9.4.6,3.5,4.8c1.2-.8,2.5-1.5,3.8-2.3,1.3-.7,2.5-1.5,3.8-2.2l-3-6.4,22.8-10.7.3.7,2.6,5.5c1.6-.7,3.3-1.3,4.9-1.9,1.6-.6,3.3-1.2,4.9-1.8l-1.4-6.4,24.6-5.4.2.7,1,4.5c1.7-.4,3.5-.7,5.2-1,1.7-.3,3.4-.6,5.2-.8l-.2-6.6,25.2-.9v.8s.2,4.7.2,4.7c.5,0,1.1,0,1.6,0,.8,0,1.6,0,2.4,0,1,0,2.1,0,3.1,0h0c.8,0,1.6,0,2.4,0l.2-5.3,25.2,1.1v.8s-.3,5.8-.3,5.8c1.5.2,3,.5,4.6.8,1.5.3,3,.6,4.4.9l1.5-5.3c8.1,2.3,16.2,4.5,24.3,6.8l-.2.7-1.2,4.4c1.5.5,3,1,4.5,1.6,1.5.5,2.9,1.1,4.4,1.7l2.7-5.6,22.7,11.1-.3.7-2.2,4.6c1.4.8,2.8,1.6,4.3,2.4,1.4.8,2.8,1.7,4.1,2.5l3.9-5.3c6.8,5,13.5,10,20.3,14.9l-.4.6-3.3,4.4c1.2,1,2.4,2,3.6,2.9,1.1,1,2.3,2,3.4,3l4.7-4.5,17.6,18.1-.5.5-4,3.9c1,1.2,2,2.3,3,3.5,1,1.2,1.9,2.3,2.8,3.5l5.3-3.6,14.3,20.8-.6.4-4.6,3.2c.8,1.3,1.5,2.6,2.2,3.8.7,1.2,1.4,2.4,2.1,3.7l6.6-2.7c3.2,7.8,6.3,15.6,9.5,23.4l-.7.3-4.7,1.9c.6,1.6,1.2,3.2,1.8,4.9.6,1.7,1.2,3.3,1.7,5l6.4-1.3,5,24.7-.7.2-4.3.9c.1.7.3,1.4.4,2.1.2,1,.3,1.9.5,2.8h-.8v.9h-9.5v-.7c-.3-1.3-.5-2.8-.9-4.4-.4-1.7-.8-3.4-1.2-5-.7-2.6-1.4-5.3-2.2-8.1-.8-2.8-1.6-5.5-2.4-8.2-1.5-4.6-3.3-9.2-5.3-13.8-2.3-5.2-4.9-10.4-7.5-15.2-1.2-2.2-2.4-4.3-3.7-6.5-1.2-2.2-2.5-4.3-3.9-6.4-4.4-7-9-13.4-14.1-19.5-5.1-6.1-10.7-11.8-16.8-17.3-5.9-5.3-12.4-10.3-19.1-15-6.9-4.7-14-9-21.1-12.7-8.2-4.2-17-8-26-11-8.8-3-17.8-5.3-26.6-6.8-10.5-1.8-20.6-2.8-30.7-2.9-10.1-.1-20.1.6-30.6,2.2-13.4,2.1-25.7,5.4-37.5,10.1-11.8,4.7-23,10.6-34.4,17.9-6,3.9-12,8.2-17.7,13-5.7,4.7-11.3,9.8-16.5,15.1-6.7,6.9-12.8,14.2-18.3,22-5.5,7.8-10.4,16-14.6,24.6-2.9,5.8-5.4,11.7-7.5,17.5-2.2,5.8-4,11.7-5.5,17.6-2,7.7-3.4,15.2-4.4,22.6-.9,7.4-1.4,14.8-1.4,22.2,0,10.5.9,20.8,2.5,31,1.7,10.1,4.1,20,7.4,29.7,5.1,15.2,12.5,30.2,21.5,44,8.9,13.6,19.4,26.1,31.2,36.6,10.9,9.8,24.2,18.9,38.4,26.3,13.7,7.1,28.2,12.7,42.2,15.8,15.8,3.5,33.2,4.9,50.6,4.2,16.9-.7,33.9-3.4,49.6-8.3,11.3-3.5,23-8.6,34.1-14.7,11.1-6.1,21.6-13.3,30.5-20.9,7.7-6.6,15.2-14.2,22.1-22.4,6.5-7.8,12.3-16.1,17-24.5,7.3-13,10.9-23.5,10.9-23.5l1.4.5ZM238.7,406.6v-.7h-4.7v.7h4.7ZM232.4,406.6v-.7h-2.7v-1.4h-6.9v4.2h6.9v-2h2.7ZM229.8,410.1h-6.9v2.7h6.9v-2.7ZM229.8,398.3h-6.9v4.7h6.9v-4.7ZM241,408.1h-9.7v6h9.7v-6ZM241,396.9h-9.7v7.5h9.7v-7.5ZM238.7,89.3v-.9h-4.8v.9h4.8ZM232.5,89.3v-.9h-2.7v-1.4h-6.9v3.3h6.9v-1.1h2.7ZM222.8,96.8h6.9v-4.8h-6.9v4.8ZM222.8,85.6h6.9v-4.7h-6.9v4.7ZM242.6,79.6h-11.3v7.3h11.3v-7.3ZM242.6,90.9h-11.3v7.3h11.3v-7.3ZM280.4,128.6v3.9h4.8v-2.3c-1.2-.4-2.4-.9-3.7-1.3-.4-.1-.8-.3-1.1-.4ZM278.7,140.3h9.7v-6.3h-9.7v6.3ZM158.1,232.2h-5.9v4.6h5.9v-4.6ZM155.4,176.3c-10.2,12.3-18.3,34.4-19.4,37.6l9.7,11.9h33v-3.6h-22.9c-4.5-4.4-9.1-8.7-13.6-13.1l.2-.5c0,0,7.3-17.9,19.4-32.4h-6.3ZM163.7,176.3c-11.3,13.1-18.5,29.5-19.8,32.5l12.5,11.9h22.3v-6h-12.8c-4.4-5-8.8-9.9-13.2-14.9l11.2-16.3h14.8v-7.3h-15ZM185.3,359.8h-18.3c2.5,2.1,8.2,6.5,18.3,11.4v-3.1h2.5v-4.5h-2.5v-3.8ZM192.8,368.2v-4.5h-3.5v4.5h3.5ZM194.1,369.7h-7.4v6h7.4v-6ZM194.2,357.2h-7.4v4.9h7.4v-4.9ZM286.5,357.2h-8v4.9h8v-4.9ZM458.2,237h-17.3v6h17.3v-6ZM458.2,250.7h-17.3v6h17.3v-6ZM458.2,264.5h-17.3v6h17.3v-6ZM362.5,276.4h22.6v6.7h-23.3v-6.7h.7ZM383.6,277.9h-20.3v3.7h20.3v-3.7ZM423.2,264.4h-28.4v32h28.4v-32ZM347.1,193.4h8v.7c.2.9.3,1.9.6,3.1.2.9.5,2,.9,3h0v1.2h-10.3v-8h.8ZM353.8,195h-5.9v5h7.1c-.3-.8-.5-1.6-.7-2.4-.2-.9-.4-1.8-.5-2.6ZM347.1,203.4h10.9l.2.4c.3.6.6,1.1,1,1.7.3.5.7,1.1,1.1,1.6v.2c.1,0,.1,8.6.1,8.6h-14.1v-12.6h.8ZM357.1,205h-9.3v9.5h11.1v-6.6c-.4-.5-.7-1-1-1.5-.3-.5-.6-.9-.8-1.4ZM343.5,217.1h17v9h-17.7v-9h.8ZM358.9,218.6h-14.7v6h14.7v-6ZM343.5,226.9h17v9h-17.7v-9h.8ZM358.9,228.4h-14.7v6h14.7v-6ZM358.9,239.5h-14.7v6h14.7v-6ZM170.6,305.2v-3.7h-3.6v3.7h3.6ZM152.1,300h5.9v-4.6h-5.9v4.6ZM152.1,283v2.3h5.9v-2.3h-5.9ZM152.1,271.9v.9h5.9v-.9h-5.9ZM152.1,258.2v3.5h5.9v-3.5h-5.9ZM152.1,247.1v.9h5.9v-.9h-5.9ZM172,208.7v4.6h6.8v-28.1h-6.8v3.4h2.4v9.1h-2.4v1.9h2.4v9.1h-2.4ZM170.5,213.3v-4.6h-7.4v-9.1h2.4v-1.9h-2.4v-9.1h2.4v-3.4h-.7l-10.1,14.6,12,13.5h3.8ZM167,197.7v1.9h3.5v-1.9h-3.5ZM167,185.2v3.4h3.5v-3.4h-3.5ZM172.9,190.1h-8.3v6.1h8.3v-6.1ZM172.9,201.1h-8.3v6.1h8.3v-6.1ZM165.6,286.8h-21v7.2h21v-7.2ZM165.6,274.3h-21v7.2h21v-7.2ZM165.6,263.2h-21v7.2h21v-7.2ZM165.6,249.5h-21v7.2h21v-7.2ZM165.6,238.4h-21v7.2h21v-7.2ZM225.2,389.4h21.1v-4.8h-21.1v4.8ZM225.2,383.2h21.1v-3.4h-21.1v3.4ZM225.2,378.2h21.1v-5.2h-21.1v5.2ZM225.2,371.6h21.1v-5.5h-21.1v5.5ZM225.2,364.6h21.1v-4h-21.1v4ZM225.2,359h21.1v-4h-21.1v4ZM225.2,353.5h21.1v-4.2h-21.1v4.2ZM246.1,108.3h-21v4.6h21v-4.6ZM246.1,114.4h-21v5.9h21v-5.9ZM246.1,121.8h-21v4.7h21v-4.7ZM246.1,128h-21v6h21v-6ZM220.6,171.5v62.9h25c4.4,0,8.2,0,12-.5,3.8-.5,7.6-1.4,11.9-3.1,7.3-3,13.6-8.4,17.3-15.1,3.4-6.1,4.6-13.4,2.6-20.8-1.3-4.7-3.6-8.7-6.5-11.8-3.1-3.4-7.1-6-11.5-7.7-4-1.6-8.3-2.5-12.6-3.1-4.3-.6-8.6-.7-12.6-.7h-25.5ZM230.7,178.6c.9,0,1.6.3,2.2.9.4.4.7.9.8,1.4h20.7c.8,0,1.6,0,2.5.1.8,0,1.6.2,2.5.4,1.7.4,3.3,1.1,4.8,2,1.6.9,3,2.1,4.2,3.5,1,1.1,1.8,2.1,2.4,3.2.5,1,.9,2,1.1,3.3h6.6v12.6h-6.2v2.4c0,1,0,1.9-.2,2.8-.1.9-.4,1.7-.8,2.8-.3.6-.6,1.2-.9,1.8-.3.6-.7,1.1-1,1.6-.3.5-.7,1-1.1,1.5-.4.4-.7.8-1,1.1-.4.4-.9.7-1.5,1-.5.3-1.1.5-1.7.7-2.2.7-4.7.7-6.8.7h-13.4v3.6h-3.6v4.1h5.4c4.1,0,7.8,0,11.3-.5,3.6-.4,7-1.3,10.9-2.8,3.8-1.5,7.3-3.8,10.2-6.7,2.8-2.8,5-6.1,6.4-9.8.8-2.3,1.3-4.6,1.4-6.9,0-2.3-.2-4.7-.8-7-1.1-4-3-7.3-5.5-10-2.6-2.8-5.9-5-9.8-6.5-3.6-1.4-7.5-2.3-11.5-2.8-4-.5-8.1-.7-12-.7h-21v53.9h9.9v-4.1h-1.7c-.2.3-.4.6-.6.9-.6.6-1.3.9-2.2.9s-1.6-.3-2.2-.9c-.6-.6-.9-1.3-.9-2.2s.3-1.6.9-2.2c.3-.3.6-.5,1-.7-.4-.2-.7-.4-1-.7-.6-.6-.9-1.3-.9-2.2s.3-1.6.9-2.2,1-.7,1.6-.8c-.6-.1-1.1-.4-1.6-.8s-.9-1.3-.9-2.2.3-1.6.9-2.2c.4-.4.9-.7,1.5-.8-.6-.1-1.1-.4-1.5-.8-.6-.6-.9-1.3-.9-2.2s.3-1.6.9-2.2c.3-.3.7-.6,1.2-.7-.4-.2-.8-.4-1.2-.7-.6-.6-.9-1.3-.9-2.2s.3-1.6.9-2.2c.6-.6,1.3-.9,2.2-.9s1.6.3,2.2.9.6.8.8,1.2h7.7v-2.3h-4.9v-1.1h-5.6v-10.4h5.6v-1.1h12.6v12.6h-6.2v2.3h13.4v-2.3h-6.3v-12.6h12.6v12.6h-4.8v3.8h-24c-.1.6-.4,1.2-.9,1.7-.3.3-.7.6-1.2.7.4.2.8.4,1.2.7.4.4.8,1,.9,1.7h13.8v-2.4h-12.7v-1.5h31.3v-8.8h4.5c-.2-.9-.5-1.8-.9-2.5-.6-1-1.3-2-2.2-2.9-1.1-1.2-2.4-2.3-3.9-3.2-1.4-.8-2.8-1.4-4.4-1.8-.7-.2-1.5-.3-2.3-.4-.8,0-1.5-.1-2.3-.1h-20.7c-.1.6-.4,1.1-.8,1.4-.6.6-1.3.9-2.2.9s-1.6-.3-2.2-.9c-.6-.6-.9-1.3-.9-2.2s.3-1.6.9-2.2c.6-.6,1.3-.9,2.2-.9ZM238.7,229.9v-4.1h-2.2v4.1h2.2ZM270.8,206h-4.8v-2.3h-17.1v2.4h17.2v7.6h-25.9v4.5h3.6v2.5h13.4c2.1,0,4.4,0,6.4-.6.5-.2,1-.4,1.5-.6.4-.2.8-.5,1.2-.8.3-.2.6-.5.9-.9.3-.4.7-.8,1-1.3.3-.5.6-1,.9-1.5.3-.5.6-1.1.8-1.6.4-.9.6-1.7.7-2.4.1-.8.2-1.6.2-2.5v-2.4ZM245.2,207.6v4.6h3.1v-4.6h-3.1ZM243.7,212.2v-4.6h-10.3c-.2.5-.4.9-.8,1.2s-.9.7-1.5.8c.6.1,1.1.4,1.5.8.5.5.8,1.1.9,1.7h10.1ZM238.7,213.7h-2.2v4.5h2.2v-4.5ZM235,213.7h-1.6c-.2.4-.4.8-.7,1.2s-1,.7-1.6.8c.6.1,1.1.4,1.6.8s.7,1,.9,1.6h1.5v-4.5ZM233.2,223.1v-2.9c-.1.3-.3.6-.6.8-.3.3-.6.5-1,.7.4.2.7.4,1,.7.2.2.4.5.6.8ZM242.3,219.7h-7.6v4.6h7.6v-4.6ZM264.6,207.6h-14.8v4.6h14.8v-4.6ZM236.2,187.5h-4.1v7.4h4.1v-7.4ZM277,194.9h-9.6v9.6h9.6v-9.6ZM260.8,186.4h-9.6v9.6h9.6v-9.6ZM247.3,186.4h-9.6v9.6h9.6v-9.6ZM231.6,223.4c-.3-.3-.7-.5-1.1-.5s-.8.2-1.1.5c-.3.3-.5.7-.5,1.1s.2.8.5,1.1c.3.3.7.5,1.1.5s.8-.2,1.1-.5.5-.7.5-1.1-.2-.8-.5-1.1ZM231.6,217.6c-.3-.3-.7-.5-1.1-.5s-.8.2-1.1.5c-.3.3-.5.7-.5,1.1s.2.8.5,1.1c.3.3.7.5,1.1.5s.8-.2,1.1-.5c.3-.3.5-.7.5-1.1s-.2-.8-.5-1.1ZM231.6,211.5c-.3-.3-.7-.5-1.1-.5s-.8.2-1.1.5c-.3.3-.5.7-.5,1.1s.2.8.5,1.1.7.5,1.1.5.8-.2,1.1-.5c.3-.3.5-.7.5-1.1s-.2-.8-.5-1.1ZM231.6,205.5c-.3-.3-.7-.5-1.1-.5s-.8.2-1.1.5c-.3.3-.5.7-.5,1.1s.2.8.5,1.1.7.5,1.1.5.8-.2,1.1-.5c.3-.3.5-.7.5-1.1s-.2-.8-.5-1.1ZM231.6,199.6c-.3-.3-.7-.5-1.1-.5s-.8.2-1.1.5c-.3.3-.5.7-.5,1.1s.2.8.5,1.1c.3.3.7.5,1.1.5s.8-.2,1.1-.5c.3-.3.5-.7.5-1.1s-.2-.8-.5-1.1ZM231.8,180.6c-.3-.3-.7-.5-1.1-.5s-.8.2-1.1.5c-.3.3-.5.7-.5,1.1s.2.8.5,1.1c.3.3.7.5,1.1.5s.8-.2,1.1-.5c.3-.3.5-.7.5-1.1s-.2-.8-.5-1.1ZM223.6,230.6v-56.2h22.5c3.9,0,8.1.2,12.2.7,4.1.5,8.2,1.5,11.9,2.9,4.1,1.6,7.6,3.9,10.4,6.9,2.7,2.9,4.7,6.5,5.9,10.7.7,2.5,1,5,.9,7.5-.1,2.5-.6,5-1.5,7.4-1.4,3.9-3.8,7.4-6.7,10.3-3.1,3-6.7,5.5-10.7,7.1-4,1.6-7.6,2.5-11.3,2.9-3.7.5-7.3.5-11.5.5h-22v-.8ZM219.1,235.2v-65.2h1s26,0,26,0c4,0,8.3.2,12.8.8,4.4.6,8.9,1.6,13,3.2,4.7,1.8,8.8,4.5,12.1,8.1,3.1,3.4,5.5,7.5,6.8,12.4,2.2,7.8.9,15.4-2.7,21.9-3.9,7-10.4,12.7-18,15.8-4.4,1.8-8.3,2.7-12.3,3.2-3.9.5-7.8.5-12.2.5h-26.5v-.8ZM220.4,253.1v69.4h30.4c5.3,0,10,0,14.6-.6,4.6-.5,9.3-1.5,14.4-3.4,8.9-3.3,16.5-9.2,21-16.6,4.1-6.8,5.6-14.7,3.1-22.8-1.6-5.2-4.3-9.5-7.9-13-3.8-3.8-8.6-6.6-14-8.5-4.8-1.7-10.1-2.8-15.3-3.4-5.2-.6-10.5-.8-15.2-.8h-31.1ZM230.8,260.3c.9,0,1.6.3,2.2.9.4.4.7.9.8,1.4h35.3c2,0,4,.2,6,.6,2,.5,3.9,1.2,5.7,2.2,1.2.7,2.3,1.5,3.2,2.5.6.7,1.1,1.5,1.4,2.4h6.3v17.4h-5.6v5.8c0,2.8,0,4.6-1.4,7.5-.8,1.6-1.8,3.1-3,4.4-1.2,1.4-2.6,2.6-4,3.5-1.9,1.2-4,2.1-6.2,2.7-2.2.6-4.4,1.1-6.5,1.4-2.3.3-4.6.5-6.9.7-2.3.1-4.6.2-6.9.2h-6.6v2.5h-10.5v-10.5h5.9v-2.2h-6.2v-2.2c-.2.5-.4.9-.8,1.3-.6.6-1.3.9-2.2.9s-1.6-.3-2.2-.9-.9-1.3-.9-2.2.3-1.6.9-2.2c.6-.6,1.3-.9,2.2-.9s1.6.3,2.2.9c.3.3.6.8.8,1.3v-4.4c-.2.5-.4.9-.8,1.3-.6.6-1.3.9-2.2.9s-1.6-.3-2.2-.9-.9-1.3-.9-2.2.3-1.6.9-2.2,1.3-.9,2.2-.9,1.6.3,2.2.9.6.8.8,1.3v-1h12.2v11.4h-4.6v2.2h3v2.7h4.1c1.8,0,3.6,0,5.5,0,1.6,0,3.8-.3,5.9-.8,1.7-.4,3.3-.9,4.8-1.6,1.3-.6,2.4-1.3,3.1-2.1.7-.8,1.2-1.9,1.4-3.3.1-.7.2-1.4.2-2,0-.9,0-1.7,0-2.4v-10.7h-5.8v-13.7h6.1v-1.5h-36c0,.7-.4,1.4-.9,1.9-.6.6-1.3.9-2.2.9s-1.6-.3-2.2-.9c-.6-.6-.9-1.3-.9-2.2s.3-1.6.9-2.2c.6-.6,1.3-.9,2.2-.9s1.6.3,2.2.9c.3.3.5.6.7,1h37.8v3h6.1v13.7h-6.4v10.7c0,.7,0,1.5,0,2.5,0,.7-.1,1.5-.3,2.2-.3,1.8-.9,3-1.8,4.1-.9,1-2.1,1.8-3.6,2.5-1.6.7-3.4,1.3-5.1,1.7-2.3.5-4.5.8-6.2.9-1.8.1-3.7.1-5.6.1h0s-4.1,0-4.1,0v2.2h6.6c2.3,0,4.6,0,6.8-.2,2.2-.1,4.5-.3,6.8-.7,2-.3,4.2-.7,6.3-1.3,2.1-.6,4.1-1.4,5.9-2.6,1.3-.8,2.5-1.9,3.7-3.2,1.1-1.2,2.1-2.6,2.8-4.1,1.3-2.6,1.3-4.3,1.3-6.9,0-.6,0-.4,0-.9v-5h-6.6v-17.4h5.9c-.2-.5-.5-1-.9-1.5-.7-.9-1.7-1.6-2.8-2.2-1.7-1-3.4-1.6-5.3-2-1.8-.4-3.7-.6-5.7-.6h-35.3c-.1.6-.4,1.1-.8,1.4-.6.6-1.3.9-2.2.9s-1.6-.3-2.2-.9c-.6-.6-.9-1.3-.9-2.2s.3-1.6.9-2.2c.6-.6,1.3-.9,2.2-.9ZM241.6,287.7v-2h-5.9v-13.7h13.7v13.7h-6.3v2h15.5v-2h-8.7v-13.7h13.7v13.7h-3.6v3.5h-26.4c-.2.4-.4.7-.7,1-.6.6-1.3.9-2.2.9s-1.6-.3-2.2-.9c-.6-.6-.9-1.3-.9-2.2s.3-1.6.9-2.2c.6-.6,1.3-.9,2.2-.9s1.6.3,2.2.9c.5.5.8,1.1.9,1.9h7.7ZM243,307.6h-7.4v7.4h7.4v-7.4ZM244.5,294h-9.2v8.4h9.2v-8.4ZM246.8,293.8h20.6v7.8h-21.4v-7.8h.8ZM265.9,295.3h-18.3v4.8h18.3v-4.8ZM290.2,272h-10.7v14.4h10.7v-14.4ZM276.1,273.5h-10.7v10.7h10.7v-10.7ZM262.2,273.5h-10.7v10.7h10.7v-10.7ZM248,273.5h-10.7v10.7h10.7v-10.7ZM230.8,310.6c.9,0,1.6.3,2.2.9.6.6.9,1.3.9,2.2s-.3,1.6-.9,2.2c-.6.6-1.3.9-2.2.9s-1.6-.3-2.2-.9c-.6-.6-.9-1.3-.9-2.2s.3-1.6.9-2.2c.6-.6,1.3-.9,2.2-.9ZM232,312.6c-.3-.3-.7-.5-1.1-.5s-.8.2-1.1.5c-.3.3-.5.7-.5,1.1s.2.8.5,1.1c.3.3.7.5,1.1.5s.8-.2,1.1-.5c.3-.3.5-.7.5-1.1s-.2-.8-.5-1.1ZM230.8,304c.9,0,1.6.3,2.2.9.6.6.9,1.3.9,2.2s-.3,1.6-.9,2.2c-.6.6-1.3.9-2.2.9s-1.6-.3-2.2-.9c-.6-.6-.9-1.3-.9-2.2s.3-1.6.9-2.2c.6-.6,1.3-.9,2.2-.9ZM232,306c-.3-.3-.7-.5-1.1-.5s-.8.2-1.1.5c-.3.3-.5.7-.5,1.1s.2.8.5,1.1c.3.3.7.5,1.1.5s.8-.2,1.1-.5c.3-.3.5-.7.5-1.1s-.2-.8-.5-1.1ZM232,299.7c-.3-.3-.7-.5-1.1-.5s-.8.2-1.1.5-.5.7-.5,1.1.2.8.5,1.1.7.5,1.1.5.8-.2,1.1-.5c.3-.3.5-.7.5-1.1s-.2-.8-.5-1.1ZM232,293.4c-.3-.3-.7-.5-1.1-.5s-.8.2-1.1.5-.5.7-.5,1.1.2.8.5,1.1c.3.3.7.5,1.1.5s.8-.2,1.1-.5c.3-.3.5-.7.5-1.1s-.2-.8-.5-1.1ZM232,286.9c-.3-.3-.7-.5-1.1-.5s-.8.2-1.1.5c-.3.3-.5.7-.5,1.1s.2.8.5,1.1c.3.3.7.5,1.1.5s.8-.2,1.1-.5c.3-.3.5-.7.5-1.1s-.2-.8-.5-1.1ZM232,269.1c-.3-.3-.7-.5-1.1-.5s-.8.2-1.1.5c-.3.3-.5.7-.5,1.1s.2.8.5,1.1c.3.3.7.5,1.1.5s.8-.2,1.1-.5c.3-.3.5-.7.5-1.1s-.2-.8-.5-1.1ZM232,262.3c-.3-.3-.7-.5-1.1-.5s-.8.2-1.1.5c-.3.3-.5.7-.5,1.1s.2.8.5,1.1.7.5,1.1.5.8-.2,1.1-.5c.3-.3.5-.7.5-1.1s-.2-.8-.5-1.1ZM224.9,257.6v60.3h25.9c5.1,0,9.6,0,14-.6,4.4-.5,8.8-1.4,13.5-3.2,5.1-1.9,10.1-5,14.1-8.9,3.6-3.6,6.3-7.9,7.5-12.8.5-2,.8-4.1.7-6.1,0-2-.4-4.1-1-6.1-1.4-4.5-3.8-8.2-6.8-11.2-3.4-3.3-7.6-5.7-12.3-7.4-4.5-1.6-9.4-2.6-14.3-3.2-5-.6-10-.8-14.7-.8h-26.5ZM223.4,318.7v-62.6h28.1c4.8,0,9.9.2,14.9.8,5,.6,10,1.6,14.6,3.3,4.9,1.8,9.3,4.3,12.8,7.8,3.3,3.2,5.8,7.1,7.2,11.9.7,2.1,1,4.3,1.1,6.5,0,2.2-.2,4.4-.7,6.5-1.3,5.1-4.2,9.7-7.9,13.4-4.1,4.2-9.3,7.3-14.7,9.3-4.9,1.8-9.4,2.8-13.9,3.3-4.5.5-9,.6-14.1.6h-27.4v-.8ZM218.9,323.2v-71.6h32.6c4.8,0,10.1.2,15.4.8,5.3.6,10.7,1.7,15.6,3.5,5.6,2,10.6,5,14.6,8.9,3.7,3.7,6.6,8.2,8.3,13.7,2.6,8.6,1.1,16.9-3.3,24.1-4.7,7.7-12.5,13.9-21.7,17.3-5.3,2-10.1,3-14.8,3.5-4.7.5-9.5.6-14.8.6h-31.9v-.8ZM266.5,107.6h-14.4v45.9h-33v-45.7h-14v45.7h-5.8c0,0,0,0,0,0h-51.1v16.9h36.6v152h-27.9l-4,18.3,52,4.1v43.8h14.3v-45.3h33.1v45.1h14v-45.7h14.4c4.1,0,8.1,0,12.2-.2,2.6-.2,5.2-.5,7.7-.9,2.5-.4,5-1,7.5-1.7,2.8-.8,5.6-1.8,8.3-2.9,2.6-1.1,5.1-2.4,7.6-3.8,4.3-2.6,8.2-5.6,11.6-9,3.4-3.5,6.4-7.3,9.1-11.6,2.8-4.5,4.7-9.7,5.8-15.2h0c1.2-6.2,1.5-12.7,1-18.6-.5-5.7-1.9-10.8-4.3-15.3-2.4-4.5-5.8-8.5-10.3-12.1-2.8-2.2-5.9-4.1-9.1-5.7-3.5-1.7-7.2-3.1-10.9-4.2l-13.5-3.9,12.8-5.9c2.3-1.1,4.8-2.7,7.1-4.5,2.4-1.9,4.7-4,6.3-6,1.8-2.1,3.1-4.4,4.1-6.8,1-2.4,1.6-5,2-7.7.9-6.1,1.1-12.3.1-18.2-1-5.9-3.2-11.5-7.1-16.5-3.6-4.5-8-8.3-13.1-11.2-5.2-2.9-10.9-4.9-16.8-5.8-4.4-.6-8.9-1-13.4-1.2-4.5-.2-9.1-.2-13.5-.1h-5.4c0,0,0-46.1,0-46.1ZM251.3,106.1h16.7v46.1h3.8c4.4-.1,9-.1,13.6,0,4.6.2,9.2.6,13.6,1.2,6,.9,12,2.9,17.3,6,5.2,2.9,9.8,6.8,13.5,11.5,4.1,5.2,6.4,11,7.4,17.1,1,6.1.8,12.4-.1,18.7-.4,2.8-1.1,5.5-2.1,8.1-1,2.6-2.4,5-4.3,7.2-1.7,2.1-4.1,4.2-6.6,6.2-2.4,1.9-5,3.5-7.4,4.7l-9.1,4.2,9.6,2.8c3.8,1.1,7.6,2.5,11.2,4.3,3.3,1.6,6.4,3.6,9.3,5.9,4.6,3.7,8.2,7.9,10.7,12.6,2.5,4.7,4,10,4.5,15.9.5,6,.3,12.7-1,19h0c-1.1,5.6-3.1,11.1-6,15.7-2.7,4.3-5.8,8.3-9.3,11.8-3.5,3.5-7.4,6.7-11.9,9.3-2.5,1.5-5.1,2.8-7.8,3.9-2.8,1.2-5.6,2.2-8.5,3-2.6.7-5.1,1.3-7.7,1.8-2.6.4-5.2.7-7.8.9-4.1.3-8.2.3-12.3.2h-12.9v45.7h-17v-45.1h-30.1v45.3h-17.3v-43.9l-52.3-4.1,4.6-21.2h27.6v-149h-36.6v-19.9s52.6,0,52.6,0h0s4.2,0,4.2,0v-45.7h17v45.7h30v-45.9h.8ZM432.7,208.8l8.6-1.8-4.4-21.8-8.6,1.8,4.4,21.8ZM423.4,175.2l8.2-3.3-8.4-20.6-8.2,3.3,8.4,20.6ZM409,145.5l7.3-5-12.6-18.3-7.3,5,12.6,18.3ZM389.1,118.5l6.3-6.2-15.5-15.9-6.3,6.2,15.5,15.9ZM364.6,95.3l5.2-7.1-17.9-13.2-5.2,7.1,17.9,13.2ZM336,76.7l3.9-7.9-20-9.7-3.9,7.9,20,9.7ZM304.9,63.7l2.4-8.5-21.4-6-2.4,8.5,21.4,6ZM272.6,54.8l.4-8.8-22.2-1-.4,8.8,22.2,1ZM238.4,53.6l-.3-8.8-22.2.8.3,8.8,22.2-.8ZM203.8,57.8l-1.9-8.6-21.7,4.7,1.9,8.6,21.7-4.7ZM170.2,66.7l-3.7-8-20.1,9.4,3.7,8,20.1-9.4ZM140.7,82l-5.2-7.1-17.9,13.1,5.2,7.1,17.9-13.1ZM114,102.4l-6.2-6.2-15.7,15.7,6.2,6.2,15.7-15.7ZM91.5,127.1l-7.2-5.2-13,18,7.2,5.2,13-18ZM72.5,155.4l-8.1-3.4-8.6,20.5,8.1,3.4,8.6-20.5ZM59.7,187.3l-8.6-2-5.1,21.6,8.6,2,5.1-21.6ZM412.9,339.3l8,3.8,9.6-20-8-3.8-9.6,20ZM395.6,366.6l7.2,5.1,12.8-18.1-7.2-5.1-12.8,18.1ZM373.1,391.6l6.3,6.2,15.6-15.8-6.3-6.2-15.6,15.8ZM345.9,411.9l5,7.3,18.3-12.7-5-7.3-18.3,12.7ZM315.9,427.1l3.7,8,20.2-9.2-3.7-8-20.2,9.2ZM283.3,437.4l2.6,8.4,21.2-6.6-2.6-8.4-21.2,6.6ZM252.4,440.4l.4,8.8,22.2-.9-.4-8.8-22.2.9ZM218,439.8l-.2,8.8,22.2.5.2-8.8-22.2-.5ZM185.6,431.9l-2.1,8.6,21.6,5.2,2.1-8.6-21.6-5.2ZM154.6,419.1l-3.8,8,20.1,9.5,3.8-8-20.1-9.5ZM125.5,400.6l-5.2,7.1,18,13,5.2-7.1-18-13ZM100.8,378.1l-6.1,6.4,16,15.4,6.1-6.4-16-15.4ZM80,351.4l-7,5.3,13.4,17.7,7-5.3-13.4-17.7ZM65.1,322.1l-8,3.6,9.2,20.2,8-3.6-9.2-20.2ZM55.6,288.3l-8.6,2,5,21.6,8.6-2-5-21.6ZM50.8,254.1l-8.8.6,1.5,22.2,8.8-.6-1.5-22.2ZM51.4,219.7h-8.8v22.2h8.8v-22.2ZM246.5,9.3c65.5,0,124.8,26.4,167.7,69.1,42.9,42.7,69.5,101.6,69.5,166.7s-26.5,124.1-69.5,166.7c-42.9,42.7-102.2,69.1-167.7,69.1s-124.8-26.4-167.7-69.1C35.9,369.1,9.3,310.2,9.3,245.1s26.5-124.1,69.5-166.7C121.7,35.7,181,9.3,246.5,9.3ZM419.7,72.8C375.4,28.8,314.1,1.5,246.5,1.5S117.6,28.8,73.3,72.8C28.9,116.9,1.5,177.8,1.5,245.1s27.4,128.1,71.7,172.2c44.3,44.1,105.6,71.3,173.2,71.3s128.9-27.3,173.2-71.3c44.3-44.1,71.7-105,71.7-172.2s-27.4-128.1-71.7-172.2Z"/>
  </g></svg>